<?xml version="1.0" encoding="UTF-8"?><svg id="Layer_1" xmlns="http://www.w3.org/2000/svg" viewBox="0 0 1080 705.31915"><defs><style>.cls-1{fill:#f4ece1;}.cls-2{fill:#fff;}.cls-3{fill:#4f1e27;}.cls-4{opacity:.11;}</style></defs><rect class="cls-3" width="1080" height="705.31915"/><g class="cls-4"><path class="cls-2" d="M426.59612,269.57675c-.21245.99321-.67387,1.77132-1.38094,2.33697-.70873.56831-1.48716.84981-2.33697.84981-1.27471,0-2.30212-.40631-3.08055-1.2216-.7801-.81263-1.16849-1.75273-1.16849-2.81499s.10623-2.10593.31868-3.13367c.21245-1.02508.31868-2.03423.31868-3.02744,0-5.16789-1.59339-9.80731-4.78017-13.9156-3.18678-4.10563-7.70138-7.55798-13.54381-10.35703-5.84243-2.7964-12.94297-4.93951-21.2983-6.42667-8.357-1.48716-17.67002-2.23075-27.93743-2.23075-7.86072,0-15.77455.5152-23.7415,1.54028-7.96695,1.02774-15.61522,2.5149-22.94481,4.46149-7.32959,1.94925-14.18117,4.39244-20.55472,7.32959-6.37356,2.9398-11.91556,6.33903-16.62436,10.19769-4.71046,3.86131-8.41011,8.14488-11.10061,12.85334-2.69216,4.71112-4.03659,9.86308-4.03659,15.45588,0,4.32074.93778,8.12629,2.81499,11.41929,1.87555,3.293,4.44323,6.16111,7.70138,8.6043,3.25649,2.4432,7.09888,4.53319,11.52552,6.26733,4.42498,1.73679,9.2234,3.18678,14.39362,4.35526,5.16856,1.16849,10.55123,2.12452,16.14635,2.8681,5.59346.74358,11.22344,1.365,16.88993,1.85895l16.3588,1.38094c8.14288.70906,15.43762,1.45264,21.88255,2.23075,6.44327.78076,12.10976,1.77132,16.99615,2.97433,8.14288,2.05547,14.16291,4.99262,18.05841,8.81675,3.89385,3.82413,5.84243,8.92298,5.84243,15.29654,0,6.16111-1.69962,11.57863-5.09885,16.25257-3.39923,4.67394-8.03832,8.6043-13.9156,11.79108-5.87894,3.18678-12.74711,5.5928-20.60784,7.22337-7.86072,1.62791-16.28909,2.4432-25.28178,2.4432-9.77279,0-18.36049-.65595-25.75979-1.96518-7.40096-1.31189-13.59692-2.76187-18.58954-4.35526-4.99262-1.59339-8.80016-3.06196-11.41929-4.40838-2.62079-1.34376-4.03659-2.08734-4.24904-2.23075-1.27471-.7064-1.91207-1.84036-1.91207-3.39923,0-1.20301.4249-2.17763,1.27471-2.92121s1.76933-1.11537,2.76187-1.11537c.77844,0,1.48716.21245,2.12452.63736.06971,0,1.29131.62142,3.6648,1.85895,2.37183,1.24019,5.91214,2.60254,10.6226,4.0897,4.7088,1.48716,10.53297,2.83358,17.47417,4.03659,6.93954,1.20566,15.01272,1.80584,24.21952,1.80584,9.13543,0,17.20861-.74358,24.21952-2.23075,7.01091-1.48716,12.90645-3.55857,17.68662-6.21422s8.39185-5.77073,10.83505-9.34788c2.4432-3.5745,3.6648-7.45175,3.6648-11.63174,0-2.47772-.44316-4.62083-1.32782-6.42667-.88632-1.80584-2.10792-3.36205-3.6648-4.67394-1.55853-1.30923-3.41749-2.42461-5.57686-3.34612-2.16103-.91885-4.5146-1.69962-7.06403-2.33697-2.69216-.7064-5.57686-1.30923-8.65742-1.80584-3.08055-.49395-6.25073-.91885-9.50722-1.27471-3.25815-.3532-6.5329-.67188-9.8259-.95603-3.293-.2815-6.5329-.56565-9.71968-.84981l-16.3588-1.38094c-12.88986-1.06226-24.13155-2.70876-33.72674-4.93951-9.59685-2.23075-17.5804-5.09885-23.95395-8.6043-6.37356-3.50546-11.15373-7.70138-14.3405-12.58778s-4.78017-10.58542-4.78017-17.10238c0-6.65506,1.50376-12.76305,4.5146-18.32398,3.00918-5.55827,7.11714-10.56948,12.32221-15.03097,5.20507-4.46149,11.29481-8.33874,18.27086-11.63174,6.9744-3.293,14.42847-6.03629,22.36056-8.23251,7.93043-2.19357,16.14635-3.84007,24.64442-4.93951,8.49808-1.09678,16.85341-1.6465,25.06933-1.6465,10.2674,0,19.20864.62142,26.82205,1.85895,7.61175,1.24019,14.12805,2.83358,19.54558,4.78017,5.41752,1.94925,9.86076,4.1614,13.33136,6.63912,3.46894,2.48038,6.26733,4.92357,8.39185,7.32959,5.02748,5.87961,7.54204,12.57184,7.54204,20.07671,0,2.48038-.24897,4.85187-.74358,7.11714Z"/><path class="cls-2" d="M433.81949,297.72663c0,2.69283-.93944,4.97669-2.81499,6.85157-1.87721,1.87754-4.16107,2.81499-6.85157,2.81499-2.69216,0-4.97602-.93744-6.85157-2.81499-1.87721-1.87489-2.81499-4.15875-2.81499-6.85157,0-1.34376.24731-2.60254.74358-3.77102.49461-1.16849,1.18508-2.19357,2.07141-3.08055.88466-.88433,1.91207-1.5748,3.08055-2.07141,1.16849-.49395,2.42494-.74358,3.77102-.74358,1.34442,0,2.60254.24963,3.77102.74358,1.16849.49661,2.19423,1.18708,3.08055,2.07141.88466.88699,1.57513,1.91207,2.07141,3.08055.49461,1.16849.74358,2.42726.74358,3.77102ZM416.61088,359.97504c0-10.19769.63736-20.3582,1.91207-30.48685.14108-.99056.58424-1.85895,1.32782-2.60254s1.71621-1.11537,2.92121-1.11537c1.06226,0,1.94692.40897,2.65565,1.2216.70707.81528,1.06226,1.75273,1.06226,2.81499,0,.4249-.08963,1.69962-.26556,3.82413-.1776,2.12452-.39005,4.65801-.63736,7.59516-.24897,2.9398-.46142,6.05488-.63736,9.34788-.1776,3.293-.26556,6.32044-.26556,9.08232,0,3.75509.37179,6.78253,1.11537,9.08232.74358,2.30245,1.69962,4.0897,2.8681,5.36441,1.16849,1.27471,2.40668,2.12452,3.71791,2.54942,1.30957.4249,2.56602.63736,3.77102.63736,1.98178,0,4.03659-.7064,6.16111-2.12452,2.12452-1.41546,4.30215-3.39923,6.5329-5.94865s4.47809-5.61139,6.74535-9.18855c2.2656-3.5745,4.49635-7.55798,6.69224-11.95042.35353-.7064.84981-1.25612,1.48716-1.6465.63736-.38772,1.34442-.58424,2.12452-.58424,1.13197,0,2.07141.4249,2.81499,1.27471s1.11537,1.77132,1.11537,2.76187c0,.70906-.14274,1.31189-.4249,1.80584-.84981,1.63057-1.91207,3.61168-3.18678,5.94865-1.27471,2.33697-2.72702,4.74564-4.35526,7.22337-1.6299,2.48038-3.41749,4.93951-5.36441,7.3827-1.94858,2.4432-4.01999,4.63942-6.21422,6.58601-2.19589,1.94925-4.49801,3.52139-6.90469,4.72706-2.40834,1.20301-4.85154,1.80584-7.32959,1.80584-3.18678,0-5.98517-.67453-8.39185-2.01829-2.40834-1.34641-4.44489-3.1496-6.10799-5.41752-1.66476-2.26527-2.90462-4.93951-3.71791-8.02006-.81495-3.08055-1.2216-6.38949-1.2216-9.93213ZM427.87083,297.72663c0-.99056-.37179-1.85895-1.11537-2.60254s-1.61165-1.11537-2.60254-1.11537c-.99255,0-1.84236.37179-2.54942,1.11537-.70873.74358-1.06226,1.61198-1.06226,2.60254,0,.99321.35353,1.84302,1.06226,2.54942.70707.70906,1.55687,1.06226,2.54942,1.06226.99089,0,1.85895-.3532,2.60254-1.06226.74358-.7064,1.11537-1.55621,1.11537-2.54942Z"/><path class="cls-2" d="M500.63561,391.52415c13.3131-17.34935,22.55476-31.76156,27.72498-43.23396.35353-.77811.83155-1.36235,1.43405-1.75273.60084-.38772,1.29131-.58424,2.07141-.58424,1.20334,0,2.19423.40897,2.97433,1.2216.77844.81528,1.16849,1.75273,1.16849,2.81499,0,.49661-.10623.99321-.31868,1.48716-3.11707,7.08262-7.54204,14.97786-13.27824,23.68839-5.7362,8.71053-12.99608,18.55236-21.77632,29.53082,0,4.46149.03486,8.92298.10623,13.38447.06971,4.46149.10623,9.34788.10623,14.65918s-.12448,10.56948-.37179,15.77455c-.24897,5.20507-.69047,10.16051-1.32782,14.87163-.63736,4.70847-1.50542,9.06373-2.60254,13.06579-1.09877,3.99941-2.51457,7.47034-4.24904,10.41014-1.73613,2.93715-3.82413,5.2396-6.26733,6.90469-2.4432,1.66244-5.32956,2.49631-8.65742,2.49631-4.74531,0-8.39185-1.80584-10.94127-5.41752-2.54942-3.61168-3.82413-8.74771-3.82413-15.40276,0-3.54264.33528-7.3827,1.00915-11.52552.67221-4.14281,1.6465-8.41044,2.92121-12.80023,1.27471-4.39244,2.81499-8.83534,4.62083-13.33136,1.80584-4.49867,3.80588-8.86987,6.00177-13.11891,2.19423-4.24904,4.58431-8.3228,7.17025-12.21599,2.58428-3.89584,5.3279-7.43582,8.23251-10.6226.06971-4.9581.12282-9.87901.15934-14.76541.03486-4.88639.12282-9.38241.26556-13.4907-2.12452,2.69283-4.65734,4.81735-7.59516,6.37356-2.93947,1.55621-5.86069,2.33697-8.76364,2.33697-2.47971,0-4.72706-.47802-6.74535-1.43405-2.01829-.95603-3.73617-2.29979-5.15196-4.03659-1.41745-1.73414-2.51457-3.77102-3.293-6.10799-.7801-2.33697-1.16849-4.88639-1.16849-7.64827,0-5.52375.93778-10.39155,2.81499-14.60607,1.87555-4.21186,4.26564-7.73591,7.17025-10.56948,2.90296-2.83092,6.10799-4.95544,9.61345-6.37356,3.50546-1.41546,6.88643-2.12452,10.14458-2.12452,2.19423,0,4.21252.28415,6.05488.84981,1.8407.56831,3.41583,1.20566,4.72706,1.91207,1.30957.70906,2.31871,1.38094,3.02744,2.01829.70707.63736,1.09711.99321,1.16849,1.06226.77844.84981,1.16849,1.80584,1.16849,2.8681s-.39005,2.00236-1.16849,2.81499c-.7801.81528-1.69962,1.2216-2.76187,1.2216-.99255,0-1.94858-.38772-2.8681-1.16849-.28382-.21245-.65561-.51254-1.11537-.90292-.46142-.38772-1.06226-.79669-1.80584-1.2216s-1.6299-.77811-2.65565-1.06226c-1.0274-.2815-2.249-.4249-3.6648-.4249-2.12452,0-4.46149.47802-7.01091,1.43405-2.54942.95603-4.92291,2.46179-7.11714,4.5146-2.19589,2.05547-4.03659,4.69253-5.52375,7.91383-1.48716,3.22396-2.23075,7.10121-2.23075,11.63174,0,3.39923.74358,6.14517,2.23075,8.23251,1.48716,2.09,3.78762,3.13367,6.90469,3.13367,1.48716,0,3.0623-.4249,4.72706-1.27471,1.6631-.84981,3.27475-2.15904,4.83328-3.93036,1.55687-1.76866,2.92121-3.99941,4.0897-6.69224,1.16849-2.69017,2.00004-5.87695,2.49631-9.56034.14108-.99056.60084-1.82178,1.38094-2.49631.77844-.67188,1.69962-1.00915,2.76187-1.00915,1.20334,0,2.14112.4249,2.81499,1.27471.67221.84981,1.00915,1.80584,1.00915,2.8681,0,.0717-.03652,1.15255-.10623,3.23989-.07137,2.09-.14274,4.87046-.21245,8.33874-.07137,3.47093-.15934,7.48893-.26556,12.05665s-.19585,9.401-.26556,14.49984ZM492.56244,414.78764c-3.32952,4.60224-6.3387,9.61345-9.02921,15.03097-2.69216,5.41752-4.99262,10.88816-6.90469,16.41191-1.91207,5.52375-3.38263,10.88816-4.40838,16.09323-1.0274,5.20507-1.54028,9.86042-1.54028,13.96871,0,2.61847.22905,4.70847.69047,6.26733.45976,1.55621,1.02574,2.76187,1.69962,3.61168.67221.84981,1.41579,1.41546,2.23075,1.69962.81329.2815,1.57513.4249,2.28386.4249,2.19423,0,4.1063-.88699,5.7362-2.65565,1.62824-1.77132,3.00918-4.12688,4.14281-7.06403,1.13197-2.9398,2.05315-6.32044,2.76187-10.14458.70707-3.82413,1.2382-7.77308,1.59339-11.84419.35353-4.07377.60084-8.12629.74358-12.16287.14108-4.03659.21245-7.75449.21245-11.15373v-9.13543c0-3.04603-.07137-6.16111-.21245-9.34788Z"/><path class="cls-2" d="M551.94275,371.55367c1.13197-2.33697,2.4432-4.90233,3.93036-7.70138,1.48716-2.7964,3.08055-5.62998,4.78017-8.49808,1.69962-2.8681,3.4872-5.71761,5.36441-8.55119,1.87555-2.83092,3.84073-5.52375,5.89554-8.07317,2.05315-2.47772,4.12455-4.26497,6.21422-5.36441,2.088-1.09678,4.05318-1.6465,5.89554-1.6465,3.68139,0,6.40841,1.34641,8.1794,4.03659,1.76933,2.69283,2.65565,6.02036,2.65565,9.98524,0,.92151-.05311,2.03688-.15934,3.34612-.10623,1.31189-.21245,2.70876-.31868,4.19593-.10623,1.48716-.21245,2.99292-.31868,4.5146-.10623,1.52434-.15934,2.95839-.15934,4.30215,0,1.69962.08797,3.33018.26556,4.88639.17594,1.55887.51287,2.92121,1.00915,4.0897.49461,1.16849,1.20334,2.09,2.12452,2.76187.91952.67453,2.12452,1.00915,3.61168,1.00915,2.6905,0,5.3113-1.04367,7.86072-3.13367,2.54942-2.08734,4.90299-4.56772,7.06403-7.43582,2.15937-2.8681,4.03659-5.78931,5.62998-8.76364,1.59339-2.97433,2.77847-5.38034,3.55857-7.22337.35353-.77811.86641-1.38094,1.54028-1.80584.67221-.4249,1.39754-.63736,2.17763-.63736,1.20334,0,2.17763.44349,2.92121,1.32782.74358.88699,1.11537,1.82443,1.11537,2.81499,0,.49661-.10623.99321-.31868,1.48716-.28382.56831-.84981,1.73679-1.69962,3.50546-.84981,1.77132-1.96518,3.8082-3.34612,6.10799-1.38094,2.30245-2.99258,4.74564-4.83328,7.32959-1.84236,2.5866-3.87725,4.93951-6.10799,7.06403-2.23075,2.12452-4.63909,3.89584-7.22337,5.3113-2.58594,1.41546-5.2947,2.12452-8.12629,2.12452-3.18678,0-5.77272-.62142-7.75449-1.85895-1.98344-1.23753-3.54197-2.8681-4.67394-4.88639-1.13363-2.01829-1.89547-4.24904-2.28386-6.69224-.39005-2.4432-.58424-4.90233-.58424-7.3827,0-1.06226.05311-2.26527.15934-3.61168.10623-1.34376.24731-2.76187.4249-4.24904.17594-1.48716.31868-2.97433.4249-4.46149.10623-1.48716.15934-2.90262.15934-4.24904,0-2.26527-.35519-3.80554-1.06226-4.62083-.70873-.81263-1.34608-1.2216-1.91207-1.2216-1.13363,0-2.4266.65595-3.87725,1.96518-1.45231,1.31189-2.97433,3.02744-4.56772,5.15196-1.59339,2.12452-3.22329,4.5146-4.88639,7.17025-1.66476,2.65565-3.22329,5.29536-4.67394,7.91383-1.45231,2.62113-2.79839,5.11744-4.03659,7.48893-1.23986,2.37415-2.21415,4.33933-2.92121,5.89554-1.41745,2.97433-2.83325,4.97669-4.24904,6.00177-1.41745,1.02508-2.8681,1.54028-4.35526,1.54028-2.05481,0-3.70131-.62142-4.93951-1.85895-1.23986-1.23753-1.85895-2.99026-1.85895-5.25818,0-.49395.06971-1.46857.21245-2.92121.14108-1.44998.31868-3.18678.53113-5.20507.21245-2.01829.4249-4.19593.63736-6.5329.21245-2.33697.4249-4.65535.63736-6.9578.21245-2.29979.38839-4.4429.53113-6.42667.14108-1.98111.21245-3.64621.21245-4.99262,0-1.76866-.07137-3.46828-.21245-5.09885-.14274-1.62791-.4249-2.61847-.84981-2.97433-.63736.21245-1.77099,1.54028-3.39923,3.98347-1.6299,2.4432-3.71791,6.74535-6.26733,12.90645-.35519.78076-.88632,1.38094-1.59339,1.80584-.70873.4249-1.45231.63736-2.23075.63736-1.205,0-2.16103-.40631-2.8681-1.2216-.70873-.81263-1.06226-1.75273-1.06226-2.81499,0-.49395.10623-1.02508.31868-1.59339,3.18678-7.57657,6.1777-13.15343,8.97609-16.73059,2.79673-3.5745,5.57686-5.36441,8.33874-5.36441,1.62824,0,3.00918.40897,4.14281,1.2216,1.13197.81528,2.03489,1.89613,2.70876,3.23989.67221,1.34641,1.16849,2.83358,1.48716,4.46149.31868,1.63057.47802,3.293.47802,4.99262,0,1.27471-.08963,3.25848-.26556,5.94865-.1776,2.69283-.40831,5.57686-.69047,8.65742-.28382,3.08055-.54939,6.14517-.79669,9.18855-.24897,3.04603-.47802,5.59545-.69047,7.64827Z"/><path class="cls-2" d="M707.2451,351.47697c-.28382.56831-.86807,1.75273-1.75273,3.55857-.88632,1.80584-2.01829,3.87725-3.39923,6.21422-1.38094,2.33697-2.99258,4.78017-4.83328,7.32959-1.84236,2.54942-3.89551,4.88639-6.16111,7.01091-2.26726,2.12452-4.71046,3.87725-7.32959,5.25818-2.62079,1.38094-5.38267,2.07141-8.28562,2.07141-4.10796,0-7.5603-1.31189-10.35703-3.93036-2.79839-2.61847-4.83328-5.91147-6.10799-9.87901-2.40834,4.03659-5.27644,7.24195-8.6043,9.61345-3.32952,2.37415-6.65738,3.55857-9.98524,3.55857-2.62079,0-4.99262-.47802-7.11714-1.43405-2.12452-.95603-3.93036-2.29979-5.41752-4.03659-1.48716-1.73414-2.63905-3.77102-3.45234-6.10799-.81495-2.33697-1.2216-4.88639-1.2216-7.64827,0-5.52375.93778-10.39155,2.81499-14.60607,1.87555-4.21186,4.26564-7.73591,7.17025-10.56948,2.90296-2.83092,6.10799-4.95544,9.61345-6.37356,3.50546-1.41546,6.88643-2.12452,10.14458-2.12452,2.19423,0,4.21252.30274,6.05488.90292,1.8407.60283,3.41583,1.25878,4.72706,1.96518,1.30957.70906,2.31871,1.365,3.02744,1.96518.70707.60283,1.09711.9401,1.16849,1.00915.77844.92151,1.16849,1.87754,1.16849,2.8681,0,1.06226-.39005,2.00236-1.16849,2.81499-.7801.81528-1.69962,1.2216-2.76187,1.2216-1.13363,0-2.08966-.38772-2.8681-1.16849-.14274-.14075-.46142-.40631-.95603-.79669-.49627-.38772-1.16849-.79669-2.01829-1.2216s-1.85895-.79669-3.02744-1.11537c-1.16849-.31868-2.49631-.47802-3.98347-.47802-2.19589,0-4.53286.49661-7.01091,1.48716-2.47971.99321-4.74531,2.53349-6.79846,4.62083-2.05481,2.09-3.77102,4.71112-5.15196,7.86072-1.38094,3.15226-2.07141,6.88875-2.07141,11.20684,0,1.34641.14108,2.70876.4249,4.0897.28216,1.38094.77844,2.63972,1.48716,3.77102.70707,1.13396,1.6631,2.05547,2.8681,2.76187,1.20334.70906,2.6905,1.06226,4.46149,1.06226,1.27471,0,2.74362-.4249,4.40838-1.27471,1.6631-.84981,3.25649-2.15904,4.78017-3.93036,1.52202-1.76866,2.90296-3.99941,4.14281-6.69224,1.2382-2.69017,2.10626-5.87695,2.60254-9.56034.14108-.99056.60084-1.82178,1.38094-2.49631.77844-.67188,1.69962-1.00915,2.76187-1.00915.99089,0,1.85895.39038,2.60254,1.16849.74358.78076,1.15023,1.66509,1.2216,2.65565.06971,1.34641.21245,3.23989.4249,5.68309.21245,2.4432.69047,4.87046,1.43405,7.27648.74358,2.40867,1.85895,4.49867,3.34612,6.26733,1.48716,1.77132,3.54031,2.65565,6.16111,2.65565,1.69962,0,3.38097-.45943,5.04573-1.38094,1.6631-.91885,3.293-2.14045,4.88639-3.6648,1.59339-1.52169,3.11541-3.25583,4.56772-5.20507,1.45065-1.94659,2.77847-3.91177,3.98347-5.89554,1.20334-1.98111,2.2656-3.89318,3.18678-5.7362.91952-1.84036,1.69962-3.43375,2.33697-4.78017.35353-.77811.86641-1.38094,1.54028-1.80584.67221-.4249,1.39754-.63736,2.17763-.63736,1.20334,0,2.17763.44349,2.92121,1.32782.74358.88699,1.11537,1.82443,1.11537,2.81499,0,.49661-.10623.99321-.31868,1.48716Z"/><path class="cls-2" d="M785.95854,274.78182c0,1.13396-.39005,2.03688-1.16849,2.70876-.7801.67453-1.73613,1.00915-2.8681,1.00915h-53.85656v1.16849c0,4.32074-.31868,8.92298-.95603,13.80937s-1.50542,9.75685-2.60254,14.60607c-1.09877,4.85187-2.33697,9.57893-3.71791,14.18117-1.38094,4.6049-2.79839,8.85393-4.24904,12.74711-1.45231,3.89584-2.88636,7.27648-4.30215,10.14458-1.41745,2.8681-2.69216,5.01121-3.82413,6.42667.91952,3.25848,2.01829,6.28592,3.293,9.08232,1.27471,2.79905,2.70876,5.24225,4.30215,7.32959,1.59339,2.09,3.3096,3.7365,5.15196,4.93951,1.8407,1.20566,3.82413,1.80584,5.94865,1.80584,2.47805,0,4.93951-1.04367,7.3827-3.13367,2.4432-2.08734,4.7088-4.56772,6.79846-7.43582,2.088-2.8681,3.93036-5.77073,5.52375-8.71053,1.59339-2.93715,2.74362-5.29271,3.45234-7.06403.70707-1.69962,1.94692-2.54942,3.71791-2.54942,1.20334,0,2.17763.4249,2.92121,1.27471s1.11537,1.77132,1.11537,2.76187c0,.49661-.10623.99321-.31868,1.48716-.21245.49661-.72698,1.63057-1.54028,3.39923-.81495,1.77132-1.87721,3.82413-3.18678,6.16111-1.31123,2.33697-2.83325,4.79876-4.56772,7.3827-1.73613,2.5866-3.68305,4.93951-5.84243,7.06403-2.16103,2.12452-4.47975,3.89584-6.9578,5.3113-2.47971,1.41546-5.09885,2.12452-7.86072,2.12452-4.88639,0-9.27817-1.59339-13.17202-4.78017-3.89551-3.18678-7.20677-7.64827-9.93213-13.38447-2.72702-5.7362-4.79843-12.53466-6.21422-20.39538-1.41745-7.86072-2.12452-16.46502-2.12452-25.81291,0-2.33697.03486-5.08026.10623-8.23251.06971-3.1496.21245-6.47978.4249-9.98524.21245-3.50546.53113-7.11714.95603-10.83505s.99089-7.34552,1.69962-10.88816h-38.13512c-1.13197,0-2.088-.33461-2.8681-1.00915-.77844-.67188-1.16849-1.5748-1.16849-2.70876,0-1.13131.39005-2.03423,1.16849-2.70876.7801-.67188,1.73613-1.00915,2.8681-1.00915h39.94096c.70707-2.54942,1.54028-4.88639,2.49631-7.01091.95603-2.12452,2.05315-3.96488,3.293-5.52375,1.2382-1.55621,2.61913-2.77781,4.14281-3.6648,1.52202-.88433,3.20338-1.32782,5.04573-1.32782,1.76933,0,3.3096.44349,4.62083,1.32782,1.30957.88699,2.42494,2.10859,3.34612,3.6648.91952,1.55887,1.6465,3.39923,2.17763,5.52375.53113,2.12452.93778,4.46149,1.2216,7.01091h54.28146c1.13197,0,2.088.33727,2.8681,1.00915.77844.67453,1.16849,1.57746,1.16849,2.70876ZM705.97039,340.9606c2.12452-4.67394,4.05318-9.71968,5.78931-15.1372,1.73447-5.41752,3.22163-10.88816,4.46149-16.41191,1.2382-5.52375,2.19423-10.94127,2.8681-16.25257.67221-5.3113,1.00915-10.19769,1.00915-14.65918h-12.53466c-.99255,4.39244-1.78924,9.8259-2.39008,16.30568-.6025,6.47978-.90292,14.35909-.90292,23.63528,0,5.17055.14108,9.50722.4249,13.01268.28216,3.50546.70707,6.6763,1.27471,9.50722ZM715.8494,261.50358c-.63736,0-1.55853.69047-2.76187,2.07141-1.205,1.38094-2.40834,3.87725-3.61168,7.48893h10.19769c-.35519-2.97433-.86807-5.3113-1.54028-7.01091-.67387-1.69962-1.43405-2.54942-2.28386-2.54942Z"/><path class="cls-2" d="M785.95854,369.2167c-2.47971,4.03659-5.36441,7.22337-8.65742,9.56034s-6.60427,3.50546-9.93213,3.50546c-2.69216,0-5.09885-.49661-7.22337-1.48716-2.12452-.99056-3.96688-2.39008-5.52375-4.19593-1.55853-1.80584-2.74528-3.98347-3.55857-6.5329-.81495-2.54942-1.2216-5.41752-1.2216-8.6043,0-4.95544.47802-9.34788,1.43405-13.17202.95603-3.82413,2.00004-7.02685,3.13367-9.61345,1.13197-2.58395,2.6905-5.22101,4.67394-7.91383.35353-.4249.79669-.74358,1.32782-.95603s1.07886-.31868,1.6465-.31868c1.13197,0,2.07141.40897,2.81499,1.2216.74358.81528,1.11537,1.75273,1.11537,2.81499,0,.4249-.08963.84981-.26556,1.27471-.1776.4249-.37179.84981-.58424,1.27471-.35519.63736-.92118,1.61198-1.69962,2.92121-.7801,1.31189-1.59339,3.02744-2.4432,5.15196-.84981,2.12452-1.59339,4.62083-2.23075,7.48893-.63736,2.8681-.95603,6.14517-.95603,9.8259,0,4.17999.83155,7.34818,2.49631,9.50722,1.6631,2.1617,4.01833,3.23989,7.06403,3.23989,1.27471,0,2.74362-.40631,4.40838-1.2216,1.6631-.81263,3.293-2.07141,4.88639-3.77102s2.99092-3.85866,4.19593-6.47978c1.20334-2.61847,1.98178-5.69902,2.33697-9.24166l1.59339-18.27086c.14108-1.06226.60084-1.94659,1.38094-2.65565.77844-.7064,1.69962-1.06226,2.76187-1.06226,1.20334,0,2.15937.44349,2.8681,1.32782.70707.88699,1.06226,1.89613,1.06226,3.02744l-1.38094,17.63351c-.14274,1.48716-.08963,3.43641.15934,5.84243.24731,2.40867.76018,4.78017,1.54028,7.11714.77844,2.33697,1.94692,4.33933,3.50546,6.00177,1.55687,1.66509,3.61168,2.49631,6.16111,2.49631,1.8407,0,3.64654-.47802,5.41752-1.43405,1.76933-.95603,3.46894-2.21216,5.09885-3.77102,1.62824-1.55621,3.13367-3.30894,4.5146-5.25818,1.38094-1.94659,2.65565-3.91177,3.82413-5.89554,1.16849-1.98111,2.17763-3.87725,3.02744-5.68309.84981-1.80584,1.55687-3.34612,2.12452-4.62083.35353-.77811.84981-1.38094,1.48716-1.80584s1.34442-.63736,2.12452-.63736c1.27471,0,2.2656.4249,2.97433,1.27471.70707.84981,1.06226,1.77132,1.06226,2.76187,0,.56831-.10623,1.09944-.31868,1.59339-.28382.56831-.83321,1.75273-1.6465,3.55857-.81495,1.80584-1.87721,3.86131-3.18678,6.16111-1.31123,2.30245-2.88636,4.72706-4.72706,7.27648-1.84236,2.54942-3.89551,4.90498-6.16111,7.06403-2.26726,2.1617-4.72706,3.93036-7.3827,5.3113-2.65565,1.38094-5.50715,2.07141-8.55119,2.07141-4.17933,0-7.64827-1.18708-10.41014-3.55857-2.76187-2.37149-4.81668-5.75214-6.16111-10.14458Z"/></g><path class="cls-2" d="M564.72677,326.79841v-38.36966h15.31199c5.5469,0,10.30462.4993,14.27177,1.49791,3.96577.99861,7.23991,2.44197,9.81964,4.3273,2.57974,1.88626,4.4794,4.14792,5.70039,6.78221,1.2196,2.63522,1.83078,5.56262,1.83078,8.77943,0,2.99582-.51364,5.7836-1.53952,8.36334-1.02727,2.57974-2.53813,4.79887-4.53534,6.65739-.77427.72087-1.63597,1.36245-2.54373,1.96208h19.56098c1.48034-1.24456,2.75715-2.53327,3.78708-3.87608,1.55247-2.02495,2.63429-4.23021,3.24548-6.61578.6098-2.38464.91539-5.104.91539-8.1553,0-3.99443-.97133-7.65599-2.91261-10.98469-1.94266-3.32869-4.6745-6.18582-8.19691-8.57138-3.52379-2.38464-7.73921-4.23021-12.64903-5.53395-4.90982-1.30281-10.306-1.95561-16.18577-1.95561h-44.43805v45.69278h18.55746Z"/><path class="cls-2" d="M629.17859,343.39379c-.78114-.80004-1.63805-1.53397-2.52986-2.23716h-23.16187c2.18116,1.01132,4.05985,2.20052,5.63636,3.56864,2.5238,2.19231,4.34025,4.785,5.45073,7.78082,1.1091,2.99582,1.66435,6.2413,1.66435,9.73643,0,3.1077-.62413,5.96391-1.87239,8.57138-1.24826,2.6084-3.16226,4.84047-5.742,6.69899-2.57974,1.85944-5.85388,3.30095-9.81964,4.3273-3.96715,1.02727-8.64166,1.53952-14.02212,1.53952h-20.05537v-42.22308h-18.55746v50.29516h51.51152c5.87977,0,11.19273-.7767,15.93612-2.33009,4.74339-1.55247,8.79237-3.67451,12.14973-6.36613,3.35597-2.69069,5.93571-5.85295,7.73921-9.48677,1.80212-3.6329,2.70456-7.53117,2.70456-11.69203,0-3.66156-.61119-7.03186-1.83078-10.1109-1.22098-3.07904-2.95421-5.76973-5.20108-8.07208Z"/><polygon class="cls-2" points="683.45495 326.79841 695.45101 300.98347 707.08641 326.79841 724.21098 326.79841 702.03535 278.6091 697.37518 278.6091 674.66651 326.79841 683.45495 326.79841"/><polygon class="cls-2" points="667.90036 341.15663 644.19931 391.45179 653.41095 391.45179 676.78283 341.15663 667.90036 341.15663"/><polygon class="cls-2" points="730.81826 341.15663 713.55795 341.15663 736.22716 391.45179 753.96296 391.45179 730.81826 341.15663"/><polygon class="cls-2" points="466.19746 326.79841 466.19746 288.26231 524.36637 288.26231 524.36637 281.10562 447.64 281.10562 447.64 326.79841 466.19746 326.79841"/><polygon class="cls-2" points="466.19746 341.15663 447.64 341.15663 447.64 391.45179 524.36637 391.45179 524.36637 384.2951 466.19746 384.2951 466.19746 341.15663"/><rect class="cls-2" x="385.26259" y="293.83006" width="46.39042" height="18.55746" transform="translate(104.80102 711.15936) rotate(-89.92309)"/><rect class="cls-2" x="311.28246" y="293.73076" width="46.39042" height="18.55746" transform="translate(31.01949 637.08013) rotate(-89.92309)"/><polygon class="cls-2" points="399.12794 341.19388 398.8719 391.48899 417.42934 391.5139 417.68539 341.21879 399.12794 341.19388"/><polygon class="cls-2" points="325.14781 341.09458 324.89176 391.38969 343.44921 391.4146 343.70525 341.11949 325.14781 341.09458"/><path class="cls-1" d="M445.6715,454.51972h-2.79932v.24609c0,3.55371-1.23145,5.33008-3.69482,5.33008-.23926,0-.45947-.00781-.66064-.02246-.20166-.01465-.37744-.03027-.52637-.04492l-.47021-.04395v-1.52344c.74609.05957,1.21631.08984,1.41064.08984.74658,0,1.30225-.29492,1.66846-.88477.36572-.58984.54883-1.41504.54883-2.47461v-11.84668h1.72412v9.62988h2.79932v1.54492Z"/><path class="cls-1" d="M445.6715,452.9748h5.59863v1.54492h-5.59863v-1.54492Z"/><path class="cls-1" d="M451.27063,452.9748h5.59863v1.54492h-5.59863v-1.54492Z"/><path class="cls-1" d="M475.85998,452.9748v1.54492h-6.27051c-.91064,0-1.73926-.31348-2.48584-.94043-.53711.62695-1.24658.94043-2.12744.94043h-8.10693v-1.54492h3.62793v-8.5332h1.72461v8.5332h2.2168c.68652,0,1.18311-.29492,1.48926-.88477s.45947-1.33301.45947-2.22852v-5.41992h1.72412v5.39746c0,.91113-.10449,1.70215-.31348,2.37402.22412.19434.50732.36914.85107.52637.34326.15625.68652.23535,1.03027.23535h2.35156v-4.86035c0-.56738-.0415-1.2793-.12354-2.13867-.08203-.8584-.17529-1.7207-.27979-2.58594l1.41064-.06738c.19385.85059.36182,1.75391.50391,2.70996.14209.95508.21289,1.70898.21289,2.26172v4.68066h2.10498ZM464.52844,439.35859h1.70215v1.88086h-1.70215v-1.88086ZM465.93908,436.62616h1.67969v1.81348h-1.67969v-1.81348ZM467.32775,439.35859h1.70215v1.88086h-1.70215v-1.88086Z"/><path class="cls-1" d="M475.85998,452.9748h5.59863v1.54492h-5.59863v-1.54492Z"/><path class="cls-1" d="M481.4591,452.9748h5.59863v1.54492h-5.59863v-1.54492Z"/><path class="cls-1" d="M495.45568,452.9748v1.54492h-8.39795v-1.54492h3.33691v-9.65234h1.72412v9.65234h3.33691ZM489.00598,439.35859h1.70215v1.88086h-1.70215v-1.88086ZM491.80529,439.35859h1.70215v1.88086h-1.70215v-1.88086Z"/><path class="cls-1" d="M495.45568,452.9748h5.59863v1.54492h-5.59863v-1.54492Z"/><path class="cls-1" d="M501.05432,452.9748h5.59863v1.54492h-5.59863v-1.54492Z"/><path class="cls-1" d="M515.05139,452.9748v1.54492h-8.39795v-1.54492h3.33691v-9.65234h1.72412v9.65234h3.33691ZM509.99035,439.35859h1.70215v1.88086h-1.70215v-1.88086Z"/><path class="cls-1" d="M515.05139,452.9748h5.59863v1.54492h-5.59863v-1.54492Z"/><path class="cls-1" d="M533.90783,452.9748v1.54492h-13.25781v-1.54492h8.98047v-6.06934c0-.74609-.19434-1.31055-.58252-1.69043-.38818-.38086-.9707-.57129-1.74658-.57129-.67188,0-2.00098.11914-3.98633.3584l-.62695.06738-.06738-1.27734c2.25439-.46191,3.94141-.69434,5.06152-.69434,2.44824,0,3.67236,1.27734,3.67236,3.83008v6.04688h2.55322ZM526.42785,456.31171h1.70215v1.88086h-1.70215v-1.88086Z"/><path class="cls-1" d="M533.90783,452.9748h5.59863v1.54492h-5.59863v-1.54492Z"/><path class="cls-1" d="M539.50646,452.9748h5.59863v1.54492h-5.59863v-1.54492Z"/><path class="cls-1" d="M553.50354,452.9748v1.54492h-8.39795v-1.54492h3.33691v-9.65234h1.72412v9.65234h3.33691Z"/><path class="cls-1" d="M553.50354,452.9748h5.59863v1.54492h-5.59863v-1.54492Z"/><path class="cls-1" d="M575.77502,446.03241c.14209.95508.21289,1.70898.21289,2.26172v6.22559h-4.16553c-.91064,0-1.73926-.31348-2.48584-.94043-.53711.62695-1.24658.94043-2.12744.94043h-8.10693v-1.54492h3.62793v-8.5332h1.72461v8.5332h2.2168c.68652,0,1.18311-.29492,1.48926-.88477s.45947-1.33301.45947-2.22852v-5.41992h1.72412v5.39746c0,.91113-.10449,1.70215-.31348,2.37402.22412.19434.50732.36914.85107.52637.34326.15625.68652.23535,1.03027.23535h2.35156v-4.86035c0-.56738-.0415-1.2793-.12354-2.13867-.08203-.8584-.17529-1.7207-.27979-2.58594l1.41064-.06738c.19385.85059.36182,1.75391.50391,2.70996Z"/><path class="cls-1" d="M596.12121,452.9748v1.54492h-7.45752c-1.3291,0-2.37402-.18652-3.13525-.55957-.76172-.37305-1.31006-.9668-1.646-1.78027-.33594-.81445-.50391-1.92285-.50391-3.32617,0-1.38867.16016-2.5.48145-3.33691.3208-.83594.85107-1.44824,1.58984-1.83594.73926-.38867,1.73584-.58301,2.98975-.58301.55225,0,1.3999.02637,2.54199.0791,1.14209.05176,2.00439.1084,2.58643.16797v9.62988h2.55322ZM585.47229,451.25019c.24609.59766.64551,1.03418,1.19824,1.30957.55225.27637,1.31348.41504,2.28418.41504h2.88916v-8.1748c-1.31396-.08887-2.3291-.13379-3.0459-.13379-1.35889,0-2.31445.32129-2.8667.96289s-.82861,1.70215-.82861,3.17969c0,1.03027.12305,1.84473.36963,2.44141ZM586.84973,439.35859h1.70166v1.88086h-1.70166v-1.88086ZM589.64904,439.35859h1.70215v1.88086h-1.70215v-1.88086Z"/><path class="cls-1" d="M596.12121,452.9748h5.59863v1.54492h-5.59863v-1.54492Z"/><path class="cls-1" d="M601.71984,452.9748h5.59863v1.54492h-5.59863v-1.54492Z"/><path class="cls-1" d="M615.71643,452.9748v1.54492h-8.39795v-1.54492h3.33691v-9.65234h1.72412v9.65234h3.33691ZM610.65539,456.31171h1.70215v1.88086h-1.70215v-1.88086Z"/><path class="cls-1" d="M615.71691,452.9748h5.59863v1.54492h-5.59863v-1.54492Z"/><path class="cls-1" d="M621.31555,452.9748h5.59863v1.54492h-5.59863v-1.54492Z"/><path class="cls-1" d="M640.51916,444.10566c1.38086,1.16504,2.07129,3.07617,2.07129,5.7334v4.68066h-15.67627v-1.54492h2.5752v-1.79199c0-.73145.18311-1.40723.54883-2.02637.36572-.62012.8584-1.1123,1.47803-1.47852.61963-.36523,1.29541-.54883,2.02686-.54883.7168,0,1.38477.17578,2.00439.52637.61914.35156,1.11182.83691,1.47803,1.45605.36572.61914.54883,1.30957.54883,2.07129v1.79199h3.29199v-3.09082c0-2.20898-.55664-3.75879-1.66846-4.64746-1.1123-.8877-2.51953-1.33203-4.22168-1.33203-.65674,0-1.35449.04883-2.09375.14551-.73926.09766-1.62354.23535-2.65381.41406l-.11182-1.32129c1.94043-.52246,3.66504-.7832,5.17285-.7832,2.10547,0,3.84814.58203,5.22949,1.74609ZM631.88586,449.34687c-.44775.44727-.67188.99316-.67188,1.63477v1.99316h4.63574v-1.99316c0-.6416-.22021-1.1875-.66064-1.63477-.44043-.44824-.98926-.67188-1.646-.67188-.65723,0-1.20947.22363-1.65723.67188Z"/></svg>