<?xml version="1.0" encoding="UTF-8"?><svg id="Layer_1" xmlns="http://www.w3.org/2000/svg" viewBox="0 0 1080 705.31915"><defs><style>.cls-1{fill:#f4ece1;}.cls-2{fill:#4f1e27;}</style></defs><rect class="cls-2" width="1080" height="705.31915"/><path class="cls-1" d="M343.60031,464.03969h-3.70974v.3798c0,2.08358-.55502,3.74865-1.66487,4.99481-1.11005,1.24616-2.70707,1.86964-4.79044,1.86964h-7.68232c-1.42179,0-2.71644-.26284-3.88496-.78853-1.16832-.52609-2.09357-1.26123-2.77492-2.20543-.68196-.94501-1.02243-2.02083-1.02243-3.22786,0-1.18747.25286-3.33952.75959-6.45531l2.13228.35046c-.42849,2.86273-.64264,4.73197-.64264,5.60811,0,.91526.23819,1.73313.71558,2.45401.47699.72006,1.11962,1.27509,1.92791,1.66466.80788.38958,1.68912.58436,2.6435.58436l7.71145.02934c1.38247,0,2.44871-.44337,3.19852-1.32929.7494-.88633,1.12472-2.01105,1.12472-3.37375,0-.25306-.01019-.43807-.02934-.55502h-.70091c-1.51898,0-2.71664-.28199-3.59299-.8468l.93482-1.66507c.35046.2335.72516.37491,1.12451.4234.39895.0489.97863.07294,1.73802.07294h6.48465v2.01553Z"/><path class="cls-1" d="M343.60031,462.02416h7.30252v2.01553h-7.30252v-2.01553Z"/><path class="cls-1" d="M361.85661,462.02416v2.01553h-10.95378v-2.01553h4.35237v-12.58951h2.24903v12.58951h4.35237ZM353.41491,466.37674h2.21989v2.4536h-2.21989v-2.4536ZM357.06617,466.37674h2.21989v2.4536h-2.21989v-2.4536Z"/><path class="cls-1" d="M361.85661,462.02416h7.30252v2.01553h-7.30252v-2.01553Z"/><path class="cls-1" d="M386.45147,462.02416v2.01553h-17.29234v-2.01553h11.71317v-7.91582c0-.97353-.25327-1.70868-.75939-2.20543-.50653-.49634-1.26612-.74492-2.27837-.74492-.87634,0-2.60967.15608-5.19938.46741l-.81787.08761-.08761-1.66466c2.94016-.60352,5.1409-.90589,6.6014-.90589,3.19343,0,4.79044,1.66507,4.79044,4.99522v7.88648h3.32994Z"/><path class="cls-1" d="M386.45147,462.02416h7.30252v2.01553h-7.30252v-2.01553Z"/><path class="cls-1" d="M404.70777,462.02416v2.01553h-10.95378v-2.01553h4.35217v-12.58951h2.24944v12.58951h4.35217ZM396.26586,466.37674h2.2201v2.4536h-2.2201v-2.4536ZM399.91712,466.37674h2.2201v2.4536h-2.2201v-2.4536Z"/><path class="cls-1" d="M404.70777,462.02416h7.30252v2.01553h-7.30252v-2.01553Z"/><path class="cls-1" d="M417.8523,443.06695v20.97274h-5.84202v-2.01553h3.59299v-18.95721h2.24903Z"/><path class="cls-1" d="M423.10995,443.06695h2.24944v20.97274h-2.24944v-20.97274Z"/><path class="cls-1" d="M452.20348,462.02416v2.01553h-9.72678c-1.73353,0-3.09624-.24328-4.08974-.73025-.99309-.48656-1.70868-1.26042-2.14675-2.32197-.43807-1.06115-.65731-2.50698-.65731-4.33791,0-1.81096.20905-3.26128.62797-4.35217.41851-1.09049,1.11005-1.88879,2.07421-2.39532.96375-.50612,2.2637-.75959,3.89943-.75959.72006,0,1.82563.03423,3.31547.10228,1.48944.06846,2.61416.14181,3.37375.21924v12.56017h3.32974ZM438.31403,459.77513c.32152.77915.84232,1.34885,1.56279,1.70868.72047.36064,1.71357.54035,2.97969.54035h3.76781v-10.6616c-1.71357-.11695-3.03755-.17523-3.97237-.17523-1.77225,0-3.01881.41892-3.73887,1.25594-.72088.83743-1.08071,2.2201-1.08071,4.14801,0,1.34355.16056,2.4051.48167,3.18385ZM440.11072,444.26462h2.21969v2.4536h-2.21969v-2.4536ZM443.76198,444.26462h2.21969v2.4536h-2.21969v-2.4536Z"/><path class="cls-1" d="M452.20348,462.02416h7.30252v2.01553h-7.30252v-2.01553Z"/><path class="cls-1" d="M470.45978,462.02416v2.01553h-10.95378v-2.01553h4.35217v-12.58951h2.24944v12.58951h4.35217ZM463.85817,466.37674h2.2201v2.4536h-2.2201v-2.4536Z"/><path class="cls-1" d="M470.45978,462.02416h7.30252v2.01553h-7.30252v-2.01553Z"/><path class="cls-1" d="M495.50759,450.45709c1.80077,1.51878,2.70177,4.0119,2.70177,7.47775v6.10486h-20.44705v-2.01553h3.35908v-2.33664c0-.95397.23839-1.83541.71558-2.6435s1.11983-1.45032,1.92791-1.92791c.80809-.47678,1.68912-.71558,2.6435-.71558.93482,0,1.80607.22902,2.61456.68624.80768.45804,1.45032,1.0909,1.92791,1.89898.47678.80809.71558,1.70868.71558,2.70177v2.33664h4.2939v-4.03106c0-2.88148-.72577-4.9019-2.17649-6.06085-1.45072-1.15854-3.28613-1.73802-5.50582-1.73802-.85739,0-1.76736.06357-2.73111.1899-.96416.12673-2.11781.30644-3.46136.54035l-.14629-1.72335c2.53143-.68135,4.78046-1.02243,6.7475-1.02243,2.74578,0,5.01926.75959,6.82085,2.27837ZM484.24695,457.2922c-.58436.58436-.87614,1.29546-.87614,2.13248v2.59948h6.04618v-2.59948c0-.83702-.28729-1.54812-.86147-2.13248-.57458-.58396-1.29017-.87614-2.14715-.87614s-1.57705.29218-2.16142.87614Z"/><path class="cls-1" d="M665.64551,319.60285v-15.14539h7.8291c2.83594,0,5.26904.25537,7.29736.76587,2.02783.51062,3.70166,1.24866,5.02051,2.21265,1.31934.96436,2.29053,2.12085,2.91504,3.46777.62354,1.34741.93604,2.84412.93604,4.48889,0,1.50671-.25732,2.9093-.76465,4.21021h9.67773c.10693-.29138.19971-.5885.27734-.89136.31201-1.21924.46826-2.60974.46826-4.1698,0-2.04236-.49658-3.91455-1.48926-5.61646-.99365-1.70203-2.39014-3.16284-4.19141-4.38257-1.80176-1.21936-3.95703-2.16309-6.46729-2.82959-2.51025-.66614-5.26953-1-8.27588-1h-22.72119v18.88977h9.48828Z"/><path class="cls-1" d="M700.91748,335.93329h-10.38623c.22852.41321.43506.83862.60156,1.28711.56689,1.53174.85059,3.19116.85059,4.97827,0,1.58899-.31885,3.04932-.95703,4.38257-.63818,1.33374-1.61719,2.47498-2.93604,3.42529-1.31885.95068-2.99316,1.68774-5.021,2.21252-2.02832.52527-4.41846.78723-7.16943.78723h-10.25439v-17.073h-9.48828v21.2002h26.33789c3.00635,0,5.72266-.39709,8.14844-1.19141,2.4248-.7937,4.49512-1.87878,6.21191-3.255,1.71582-1.37573,3.03516-2.99255,3.95703-4.85059.92139-1.85754,1.38281-3.85071,1.38281-5.97815,0-1.87219-.3125-3.59546-.93604-5.1698-.10303-.25989-.22412-.5061-.3418-.75525Z"/><polygon class="cls-1" points="728.43018 319.60285 732.48535 310.87677 736.41846 319.60285 745.13184 319.60285 735.85205 299.43671 733.46924 299.43671 723.96582 319.60285 728.43018 319.60285"/><polygon class="cls-1" points="716.27051 335.93329 706.28027 357.13349 710.99023 357.13349 720.8418 335.93329 716.27051 335.93329"/><polygon class="cls-1" points="743.77881 335.93329 753.33447 357.13349 762.40283 357.13349 752.64697 335.93329 743.77881 335.93329"/><polygon class="cls-1" points="615.26725 319.61558 615.26725 304.37241 645.00919 304.37241 645.00919 300.71317 605.77877 300.71317 605.77877 319.61558 615.26725 319.61558"/><polygon class="cls-1" points="615.26725 335.93331 605.77877 335.93331 605.77877 357.13351 645.00919 357.13351 645.00919 353.47427 615.26725 353.47427 615.26725 335.93331"/><path class="cls-1" d="M349.09149,371.25183l26.55074,57.69681h-9.65868l-8.59495-18.80678h-24.21053l-8.8928,18.80678h-4.76552l27.18898-57.69681h2.38276ZM334.83748,406.48262h20.80659l-10.25437-22.33837-10.55222,22.33837Z"/><path class="cls-1" d="M383.4713,372.5283h9.48849v52.76109h28.42291v3.65924h-37.9114v-56.42033Z"/><path class="cls-1" d="M431.97747,372.5283l19.57266,28.59311,19.48757-28.59311h5.14846l-21.87032,32.0396v24.38073h-9.48849v-23.4872l-22.55111-32.93313h9.70123Z"/><path class="cls-1" d="M506.14084,371.25183l26.55074,57.69681h-9.65868l-8.59495-18.80678h-24.21053l-8.8928,18.80678h-4.76552l27.18898-57.69681h2.38276ZM491.88684,406.48262h20.80659l-10.25437-22.33837-10.55222,22.33837Z"/><path class="cls-1" d="M603.19572,372.5283h9.48849v56.42033h-9.48849v-56.42033Z"/><path class="cls-1" d="M650.12757,371.25183l26.55074,57.69681h-9.65868l-8.59495-18.80678h-24.21053l-8.8928,18.80678h-4.76552l27.18898-57.69681h2.38276ZM635.87356,406.48262h20.80659l-10.25437-22.33837-10.55222,22.33837Z"/><rect class="cls-1" x="575.9952" y="305.10902" width="19.49918" height="9.48849" transform="translate(274.93553 895.09135) rotate(-89.90645)"/><rect class="cls-1" x="538.14036" y="305.08682" width="19.55632" height="9.48849" transform="translate(237.19584 857.24445) rotate(-89.90672)"/><rect class="cls-1" x="539.13281" y="377.70939" width="93.04075" height="9.48849" transform="translate(202.37588 967.56811) rotate(-89.91938)"/><rect class="cls-1" x="501.33193" y="377.684" width="92.98997" height="9.48849" transform="translate(164.6278 929.71623) rotate(-89.91934)"/><polygon class="cls-1" points="543.18631 329.42593 749.85332 329.42593 747.74135 325.76808 543.18631 325.76808 543.18631 329.42593"/></svg>