<?xml version="1.0" encoding="UTF-8"?><svg id="Swatch_Info_Layer" xmlns="http://www.w3.org/2000/svg" viewBox="0 0 908.87164 412.20338"><defs><style>.cls-1{fill:#403f3f;}</style></defs><path class="cls-1" d="M516.03819,130.10768V56.17147h29.50535c10.68856,0,19.85643.96213,27.50091,2.88639,7.64182,1.92426,13.9509,4.70553,18.92191,8.33847,4.97101,3.63472,8.63156,7.99281,10.98433,13.06895,2.35009,5.07791,3.52781,10.71885,3.52781,16.91747,0,5.77279-.98975,11.14468-2.96657,16.1157-1.9795,4.97101-4.89083,9.24715-8.73936,12.82841-1.49197,1.38908-3.15243,2.62537-4.90163,3.78082h37.69293c2.85254-2.3982,5.31288-4.88148,7.2975-7.46899,2.99151-3.90198,5.07613-8.15139,6.25385-12.74824,1.17505-4.59507,1.76391-9.83512,1.76391-15.71481,0-7.69705-1.8717-14.75268-5.61243-21.16688-3.7434-6.41421-9.00751-11.91974-15.79499-16.51658-6.79015-4.59507-14.91303-8.15139-24.37399-10.66362-9.46096-2.51045-19.8591-3.76835-31.18908-3.76835h-85.62967v88.04747h35.75921Z"/><path class="cls-1" d="M628.11065,131.60764h-43.23267l4.16632-2.75146c1.87701-1.23975,3.41638-2.42627,4.70612-3.62695,3.66412-3.40967,6.47937-7.54297,8.36792-12.28564,1.89777-4.77197,2.86017-10.00781,2.86017-15.56104,0-5.94824-1.14026-11.42822-3.3891-16.2876-2.23529-4.82227-5.77094-9.02393-10.50842-12.48779-4.79388-3.50342-10.9856-6.22705-18.40283-8.09473-7.4884-1.88477-16.61786-2.84082-27.13464-2.84082h-28.00531v73.93604h-38.75922V40.56028h87.12964c11.40192,0,22.02484,1.28467,31.57379,3.81836,9.5722,2.5415,17.92615,6.19922,24.83002,10.87158,6.94214,4.70117,12.40918,10.42139,16.24982,17.00244,3.85986,6.61865,5.81689,13.99463,5.81689,21.92285,0,5.97607-.60919,11.38818-1.81067,16.08643-1.22272,4.77295-3.41516,9.24365-6.5166,13.28955-1.97815,2.5791-4.50909,5.1709-7.52277,7.70459l-.41846.35156ZM594.44622,128.60764h32.56726c2.66425-2.27979,4.9024-4.59326,6.65771-6.88184,2.85364-3.72217,4.86938-7.82959,5.99097-12.20752,1.13922-4.45508,1.71698-9.61719,1.71698-15.34277,0-7.39014-1.81958-14.25781-5.4082-20.41113-3.61212-6.18945-8.77344-11.58252-15.34033-16.02979-6.62433-4.4834-14.67163-8.00146-23.91785-10.45654-9.29773-2.4668-19.6618-3.71777-30.80414-3.71777h-84.12964v85.04736h32.75922V54.6716h31.00531c10.76355,0,20.13934.98633,27.86707,2.93164,7.79309,1.9624,14.33386,4.84961,19.44086,8.58203,5.15265,3.76758,9.00836,8.35938,11.46014,13.64893,2.43335,5.25781,3.66693,11.16162,3.66693,17.54834,0,5.93457-1.03381,11.54297-3.07275,16.66992-2.05438,5.15967-5.11981,9.6582-9.11139,13.37256-.42535.396-.8739.78955-1.34814,1.18262Z"/><path class="cls-1" d="M640.23327,162.08606c-1.50522-1.54164-3.15644-2.95588-4.87491-4.31088h-44.63163c4.20298,1.94876,7.82311,4.24028,10.86095,6.87656,4.86322,4.22447,8.36341,9.22042,10.50326,14.99321,2.13718,5.77279,3.2071,12.02664,3.2071,18.76156,0,5.98838-1.20266,11.49212-3.60799,16.51658-2.40533,5.02624-6.0935,9.32733-11.06451,12.90859-4.97101,3.58305-11.2801,6.36076-18.92191,8.33847-7.64449,1.9795-16.65199,2.96657-27.01985,2.96657h-38.6456v-81.36155h-35.75921v96.916h99.25986c11.32998,0,21.56777-1.49665,30.70802-4.48995,9.14025-2.99151,16.94242-7.08057,23.41186-12.26717,6.46677-5.18482,11.43778-11.27831,14.91303-18.28049,3.47258-7.00039,5.21154-14.51214,5.21154-22.5299,0-7.05563-1.17772-13.55001-3.52781-19.48315-2.35277-5.93314-5.69261-11.11796-10.0222-15.55445Z"/><path class="cls-1" d="M579.53881,256.19114h-100.75983v-99.91602h38.75922v81.36182h37.14557c10.19977,0,19.16406-.98193,26.6438-2.91895,7.43164-1.92285,13.62927-4.64941,18.4209-8.10303,4.74329-3.41748,8.30573-7.56885,10.5885-12.33936,2.29663-4.79736,3.46106-10.13623,3.46106-15.86914,0-6.52295-1.04761-12.66016-3.11377-18.24072-2.04071-5.50537-5.43225-10.34424-10.08026-14.38184-2.91547-2.52979-6.45117-4.76709-10.50824-6.64795l-6.17017-2.86084h51.95294l.40851.32227c2.02496,1.59619,3.61993,3.00732,5.01941,4.44092h.00037c4.44727,4.55762,7.92719,9.95703,10.34302,16.04932,2.41101,6.08691,3.63342,12.82764,3.63342,20.03613,0,8.21143-1.80597,16.01611-5.3678,23.19629-3.55646,7.16602-8.71027,13.48633-15.31842,18.78467-6.58124,5.27588-14.61682,9.48926-23.88354,12.52246-9.24829,3.02832-19.737,4.56396-31.17468,4.56396ZM481.77899,253.19114h97.75983c11.12,0,21.29462-1.48535,30.24127-4.41504,8.92322-2.9209,16.64136-6.9624,22.94031-12.01221,6.2655-5.02344,11.14661-11.00488,14.50769-17.77734,3.35431-6.76172,5.05518-14.11768,5.05518-21.86279,0-6.82861-1.15143-13.19775-3.42236-18.93115-2.26849-5.7207-5.53253-10.78711-9.70117-15.05859-1.2132-1.24268-2.5957-2.47656-4.3244-3.85889h-38.10736c2.13727,1.30518,4.09119,2.72363,5.84283,4.24365,5.03278,4.37207,8.7088,9.62207,10.92664,15.60449,2.19019,5.91602,3.3006,12.40381,3.3006,19.2832,0,6.18457-1.26337,11.95947-3.755,17.16455-2.5022,5.22852-6.38507,9.76318-11.54065,13.47754-5.09467,3.67236-11.62958,6.55713-19.42297,8.57373-7.72498,2.00049-16.94232,3.01465-27.39563,3.01465h-40.14557v-81.36182h-32.75922v93.91602Z"/><polygon class="cls-1" points="744.82082 130.10768 767.93657 80.36372 790.35735 130.10768 823.35544 130.10768 780.62423 37.24956 771.64434 37.24956 727.88597 130.10768 744.82082 130.10768"/><path class="cls-1" d="M825.69683,131.60764h-36.30872l-21.47241-47.64014-22.13782,47.64014h-20.25708l45.17224-95.85791h10.89209l44.11169,95.85791ZM791.3266,128.60764h29.68738l-41.35071-89.85791h-7.06763l-42.3446,89.85791h13.61279l24.09363-51.84814,23.36914,51.84814Z"/><polygon class="cls-1" points="714.84799 157.77518 669.17738 254.69118 686.9277 254.69118 731.96401 157.77518 714.84799 157.77518"/><path class="cls-1" d="M687.8847,256.19114h-21.07239l47.08435-99.91602h20.41846l-46.43042,99.91602ZM671.54242,253.19114h14.42822l43.64233-93.91602h-13.81372l-44.25684,93.91602Z"/><polygon class="cls-1" points="836.0873 157.77518 802.82763 157.77518 846.50994 254.69118 880.68586 254.69118 836.0873 157.77518"/><path class="cls-1" d="M883.02728,256.19114h-37.48657l-45.03442-99.91602h36.54199l45.979,99.91602ZM847.47918,253.19114h30.86523l-43.21802-93.91602h-29.97729l42.33008,93.91602Z"/><polygon class="cls-1" points="326.17765 130.10768 326.17765 55.85076 438.26592 55.85076 438.26592 42.06021 290.41845 42.06021 290.41845 130.10768 326.17765 130.10768"/><path class="cls-1" d="M327.67767,131.60764h-38.75922V40.56028h150.84747v16.79053h-112.08826v74.25684ZM291.91845,128.60764h32.75922V54.3508h112.08826v-10.79053h-144.84747v85.04736Z"/><polygon class="cls-1" points="326.17765 157.77518 290.41845 157.77518 290.41845 254.69118 438.26592 254.69118 438.26592 240.90064 326.17765 240.90064 326.17765 157.77518"/><path class="cls-1" d="M439.76593,256.19114h-150.84747v-99.91602h38.75922v83.12549h112.08826v16.79053ZM291.91845,253.19114h144.84747v-10.79053h-112.08826v-83.12549h-32.75922v93.91602Z"/><rect class="cls-1" x="170.22063" y="66.5795" width="89.39178" height="35.75921" transform="translate(130.16902 299.26206) rotate(-89.92309)"/><path class="cls-1" d="M234.23413,130.68088l-38.75922-.05176.12402-92.3916,38.75916.05176-.12396,92.3916ZM198.47894,127.63303l32.75922.04395.11591-86.3916-32.75916-.04395-.11597,86.3916Z"/><rect class="cls-1" x="27.66501" y="66.38815" width="89.39178" height="35.75921" transform="translate(-12.00391 156.51547) rotate(-89.92309)"/><path class="cls-1" d="M91.67846,130.48948l-38.75916-.05176.12402-92.3916,38.75916.05176-.12402,92.3916ZM55.92334,127.44162l32.75916.04395.11597-86.3916-32.75916-.04395-.11597,86.3916Z"/><polygon class="cls-1" points="196.9384 157.84697 196.44502 254.76286 232.20419 254.81086 232.69757 157.89497 196.9384 157.84697"/><path class="cls-1" d="M233.69659,256.31272l-38.75922-.05176.50867-99.91602,38.75916.05176-.50861,99.91602ZM197.95263,253.26487l32.75922.04395.47809-93.91602-32.75916-.04395-.47815,93.91602Z"/><polygon class="cls-1" points="54.38277 157.65562 53.88939 254.57151 89.64857 254.61951 90.14194 157.70362 54.38277 157.65562"/><path class="cls-1" d="M91.14093,256.12131l-38.75916-.05176.50864-99.91602,38.75916.05225-.50864,99.91553ZM55.39703,253.07346l32.75916.04395.47812-93.91553-32.75916-.04443-.47812,93.91602Z"/><path class="cls-1" d="M75.41611,363.29028c1.38094,0,2.74779-.18882,4.10054-.56929s2.5646-.94411,3.63553-1.69095,1.9305-1.66276,2.57869-2.74779.97229-2.3476.97229-3.7849c0-1.71913-.44387-3.24662-1.33162-4.58528s-2.05027-2.5646-3.48758-3.67781c-1.4373-1.11321-3.07893-2.16441-4.92488-3.1508-1.84595-.98639-3.72713-1.97277-5.64353-2.95916s-3.79758-2.02068-5.64353-3.1057-3.48758-2.29687-4.92488-3.63553c-1.4373-1.33867-2.59983-2.83233-3.48758-4.48101-.88775-1.64867-1.33162-3.54535-1.33162-5.68721s.4016-4.12873,1.2048-5.96058c.8032-1.83186,1.97982-3.41571,3.52985-4.75438,1.55003-1.33867,3.45939-2.38987,5.72808-3.1508,2.26869-.76093,4.86851-1.14139,7.79949-1.14139,2.64915,0,5.01647.28182,7.10197.84547s3.91736,1.39503,5.49557,2.49414c1.57822,1.09911,2.91688,2.45187,4.016,4.05827s1.98686,3.46644,2.66324,5.58012l-4.8192,2.19823c-.56365-1.71913-1.2823-3.28889-2.15596-4.7121s-1.91641-2.64351-3.12825-3.65808c-1.21184-1.01457-2.61392-1.79522-4.20623-2.34478s-3.38894-.82575-5.38989-.82575c-1.77549,0-3.32553.24801-4.6501.7412-1.32457.49319-2.43073,1.14139-3.31848,1.94459-.88775.8032-1.55003,1.70504-1.98686,2.70551-.43683,1.00048-.65524,2.02068-.65524,3.06343,0,1.46549.45092,2.81261,1.35276,4.03854.90184,1.22594,2.09959,2.38142,3.59326,3.46644,1.49367,1.08502,3.19166,2.13341,5.09397,3.14798,1.90231,1.01457,3.83986,2.04323,5.81263,3.08598,1.97277,1.04275,3.91031,2.12777,5.81263,3.25507,1.90231,1.1273,3.60031,2.36169,5.09397,3.70035,1.49367,1.33867,2.69142,2.80415,3.59326,4.39646.90184,1.59231,1.35276,3.37344,1.35276,5.34621,0,2.22641-.42274,4.32037-1.26821,6.27905-.84547,1.95868-2.11368,3.66372-3.80463,5.11511-1.69095,1.4514-3.79054,2.59842-6.29877,3.44389s-5.42512,1.26821-8.75064,1.26821c-2.70551,0-5.11511-.29592-7.22879-.88775-2.11368-.59183-3.98077-1.4514-5.60126-2.57869-1.62049-1.1273-3.00847-2.49978-4.16395-4.12027-1.15548-1.62049-2.09959-3.47489-2.83233-5.56039l5.03056-2.07141c.59183,1.83186,1.38798,3.46644,2.38846,4.90374s2.163,2.6576,3.48758,3.65808,2.79711,1.76704,4.4176,2.3025,3.34666.8032,5.17852.8032Z"/><path class="cls-1" d="M74.73971,367.84104c-2.78397,0-5.30682-.31104-7.49841-.9248-2.21216-.61914-4.19812-1.53467-5.90274-2.7207-1.70844-1.18799-3.19125-2.65527-4.40707-4.36035-1.20395-1.68848-2.20035-3.64307-2.96155-5.80957l-.31448-.89502,6.90768-2.84424.3324,1.02881c.5585,1.729,1.31812,3.29004,2.25766,4.64014.93723,1.34619,2.03726,2.50098,3.2695,3.43164,1.22781.92725,2.61691,1.65088,4.12872,2.15039,2.64258.87402,5.76279,1.04541,8.69455.2207,1.23883-.34814,2.3606-.86914,3.33408-1.54834.94901-.66162,1.72018-1.48242,2.29236-2.43994.55127-.92285.83078-2.02393.83078-3.27246,0-1.53125-.38107-2.85059-1.16498-4.03223-.82336-1.2417-1.92236-2.39941-3.2666-3.44043-1.3909-1.07666-3.00046-2.10596-4.78378-3.05908-1.84158-.98438-3.71817-1.96826-5.62988-2.95215-1.93744-.99707-3.85272-2.05127-5.69263-3.13232-1.90012-1.11719-3.61594-2.38428-5.09976-3.76611-1.51056-1.40674-2.75092-3.00098-3.68646-4.73877-.96289-1.78809-1.45114-3.86084-1.45114-6.16113,0-2.271.43365-4.41162,1.28897-6.3623.85919-1.95947,2.13498-3.67871,3.79199-5.10986,1.64395-1.41943,3.68408-2.54346,6.06384-3.3418,2.36014-.79199,5.09131-1.19336,8.11743-1.19336,2.72549,0,5.20276.29639,7.36301.88037,2.18658.59082,4.14008,1.47852,5.80603,2.63867,1.67007,1.1626,3.10669,2.61426,4.26981,4.31445,1.14886,1.6792,2.08768,3.64404,2.79034,5.83984l.27069.8457-6.64429,3.03076-.34824-1.06201c-.53619-1.63525-1.22858-3.14941-2.05792-4.5-.81412-1.32666-1.79584-2.4751-2.91803-3.41504-1.11069-.92969-2.41962-1.65869-3.89038-2.16602-1.48175-.51172-3.18536-.771-5.06378-.771-1.64624,0-3.09326.22803-4.30087.67822-1.19968.44678-2.20782,1.03516-2.99677,1.74902-.7778.70361-1.36365,1.49902-1.74136,2.36377-.37933.86914-.57169,1.76514-.57169,2.66357,0,1.25928.37891,2.38623,1.15833,3.4458.83694,1.1377,1.97263,2.23096,3.3754,3.25,1.44446,1.04932,3.11893,2.0835,4.9769,3.07471,1.90121,1.01416,3.83759,2.04248,5.8092,3.08398,1.98047,1.04736,3.95041,2.15039,5.85529,3.2793,1.9462,1.15283,3.71313,2.43701,5.25159,3.81592,1.56717,1.4043,2.84433,2.96826,3.7959,4.64844.98383,1.73682,1.48267,3.70117,1.48267,5.83887,0,2.354-.45425,4.6001-1.35013,6.67529-.90225,2.09033-2.27209,3.93359-4.07147,5.47754-1.77899,1.52734-4.00995,2.74951-6.63068,3.63281-2.59854.87598-5.65018,1.32031-9.07001,1.32031ZM56.18817,354.25071c.64676,1.63525,1.4425,3.12012,2.3718,4.42334,1.08209,1.51758,2.40118,2.82275,3.92065,3.87988,1.52066,1.05762,3.30374,1.87744,5.29993,2.43652,2.01605.56445,4.35745.85059,6.95917.85059,3.20212,0,6.03876-.40918,8.43118-1.21582,2.37619-.80078,4.38367-1.89551,5.96689-3.25488,1.5668-1.34473,2.75705-2.94385,3.53787-4.75293.7872-1.82324,1.18634-3.80273,1.18634-5.88232,0-1.7876-.41144-3.4209-1.2229-4.85352-.84442-1.49072-1.98514-2.88525-3.39047-4.14453-1.44141-1.29199-3.1022-2.49805-4.93631-3.58447-1.87726-1.11279-3.8186-2.19971-5.77032-3.23145-1.97375-1.04346-3.91245-2.07275-5.81586-3.08789-1.93903-1.03418-3.69229-2.11816-5.21106-3.22119-1.56958-1.14014-2.85178-2.37891-3.811-3.68262-1.02676-1.396-1.54733-2.9541-1.54733-4.63135,0-1.17529.24857-2.34082.7388-3.46338.49188-1.12695,1.24298-2.15186,2.23239-3.04736.97769-.88428,2.20255-1.60449,3.6405-2.13965,1.43149-.53369,3.11349-.8042,4.99899-.8042,2.10107,0,4.02432.29639,5.71628.88037,1.70197.5874,3.22339,1.43604,4.52182,2.52344,1.28809,1.07812,2.41132,2.39111,3.33853,3.90186.7291,1.1875,1.36053,2.48584,1.88339,3.87109l3.00174-1.36914c-.60309-1.67236-1.35834-3.17627-2.25079-4.48096-1.02573-1.49902-2.29144-2.77832-3.76199-3.80176-1.47668-1.02832-3.22113-1.81885-5.18509-2.34961-1.9903-.53809-4.2919-.81104-6.84113-.81104-2.80942,0-5.32651.3667-7.48138,1.08984-2.13229.71484-3.94656,1.71045-5.39267,2.95898-1.4296,1.23486-2.52902,2.71484-3.26758,4.39893-.74356,1.69629-1.12061,3.56689-1.12061,5.55957,0,1.96533.40781,3.71924,1.21207,5.21289.83179,1.54492,1.9382,2.96582,3.28864,4.22314,1.37738,1.2832,2.97552,2.4624,4.75009,3.50537,1.80783,1.06299,3.69009,2.09863,5.59442,3.07861,1.92111.98877,3.80692,1.97754,5.65738,2.9668,1.88177,1.00537,3.58615,2.09619,5.06561,3.2417,1.51706,1.1748,2.76486,2.49268,3.70883,3.91602.99411,1.49902,1.4982,3.22754,1.4982,5.1377,0,1.61475-.37476,3.06104-1.11386,4.29785-.71848,1.20264-1.6825,2.23047-2.86526,3.05518-1.15729.80713-2.48187,1.42432-3.93671,1.8335-3.31335.93115-6.84583.75098-9.86362-.24707-1.72012-.56885-3.30359-1.39453-4.70648-2.4541-1.40079-1.05811-2.64752-2.36523-3.70551-3.88477-.86282-1.23975-1.58789-2.63135-2.16238-4.14893l-3.16119,1.30176Z"/><path class="cls-1" d="M107.96681,309.47593h9.42702v56.05485h-9.42702v-56.05485Z"/><path class="cls-1" d="M118.39383,366.53098h-11.427v-58.05518h11.427v58.05518ZM108.96682,364.53098h7.427v-54.05518h-7.427v54.05518Z"/><path class="cls-1" d="M164.52895,312.22372c-3.38189,0-6.5031.60029-9.36361,1.79804s-5.32648,2.91688-7.39789,5.15738c-2.07141,2.2405-3.68485,4.94602-4.84033,8.11654-1.15548,3.17052-1.73322,6.71305-1.73322,10.63041,0,3.94554.62706,7.50498,1.88118,10.6755,1.25412,3.17052,2.97325,5.86758,5.15738,8.09399,2.18414,2.22641,4.75578,3.9399,7.71494,5.13766,2.95916,1.19775,6.12968,1.79522,9.51157,1.79522,2.45187,0,4.66419-.32973,6.63696-.99202,1.97277-.66229,3.74826-1.61485,5.32648-2.85488v-19.65724h-10.61068v-3.33962h20.03771v24.64553c-1.63458.87366-3.28325,1.64867-4.94602,2.32505s-3.45939,1.24003-5.38989,1.69095c-1.9305.45092-4.05122.79756-6.36218,1.03711-2.31096.23955-4.93193.35792-7.8629.35792-3.10007,0-6.04513-.34383-8.83519-1.0343-2.79006-.69047-5.3758-1.67122-7.75721-2.93943s-4.53033-2.78161-6.44673-4.54301c-1.91641-1.7614-3.54394-3.71444-4.88261-5.85631-1.33867-2.14186-2.37437-4.43873-3.10711-6.8906s-1.09911-5.00238-1.09911-7.65153c0-2.62097.34523-5.17711,1.0357-7.67126.69047-2.49414,1.6839-4.84738,2.98029-7.0597s2.87461-4.23582,4.73465-6.06768c1.86004-1.83186,3.95963-3.41007,6.29877-4.73465,2.33914-1.32457,4.88965-2.35323,7.65153-3.08598,2.76188-.73274,5.69285-1.09911,8.79292-1.09911,2.95916,0,5.6999.40301,8.22222,1.20621s4.8192,1.86568,6.8906,3.19025,3.91031,2.85488,5.51671,4.5881c1.6064,1.73322,2.98734,3.54253,4.14282,5.43075l-4.05827,2.70551c-2.36732-4.53737-4.99534-7.85444-7.88403-9.95403-2.8887-2.09959-6.20718-3.1508-9.95544-3.1508Z"/><path class="cls-1" d="M162.28845,367.84104c-3.17038,0-6.22379-.35791-9.07541-1.06348-2.85468-.70654-5.54196-1.7251-7.98715-3.02734-2.44791-1.30371-4.68646-2.88135-6.65335-4.68945-1.97202-1.8125-3.67242-3.85254-5.05386-6.06299-1.3797-2.20703-2.46216-4.60742-3.21722-7.13379-.75708-2.53369-1.14096-5.2041-1.14096-7.93799,0-2.69824.36066-5.36865,1.07193-7.93799.71033-2.56592,1.74701-5.02148,3.08127-7.29834,1.33606-2.28027,2.98325-4.39111,4.89581-6.27441,1.91324-1.88477,4.10275-3.53076,6.5076-4.89258,2.40143-1.35986,5.05527-2.43066,7.88782-3.18213,2.832-.75195,5.87668-1.13281,9.04941-1.13281,3.04587,0,5.91434.42188,8.52567,1.25342,2.5965.82666,4.99396,1.93701,7.12592,3.30078,2.13104,1.36279,4.05261,2.96094,5.71136,4.75049,1.6463,1.77637,3.08032,3.65674,4.26245,5.58887l.50195.8208-5.78491,3.85596-.51495-.9873c-2.28333-4.37598-4.83539-7.6084-7.58539-9.60693-2.70203-1.96436-5.85376-2.95996-9.36749-2.95996-3.23083,0-6.25125.57861-8.97736,1.72021-2.71387,1.13623-5.08582,2.78955-7.0499,4.91357-1.9711,2.13232-3.53058,4.75-4.63501,7.78027-1.10995,3.04541-1.67276,6.50684-1.67276,10.28809,0,3.80127.60934,7.26953,1.81107,10.30811,1.19815,3.02881,2.86066,5.64014,4.94135,7.76123,2.07855,2.11865,4.56027,3.771,7.37625,4.91113,2.82358,1.14258,5.89752,1.72217,9.13641,1.72217,2.33398,0,4.4599-.31641,6.31879-.94043,1.69531-.56885,3.25562-1.37598,4.64465-2.40186v-18.16211h-10.61072v-5.33936h22.03772v26.24512l-.52869.28223c-1.65747.88574-3.35339,1.68311-5.04053,2.36914-1.70227.69287-3.56604,1.27783-5.53931,1.73828-1.96967.46045-4.15216.81641-6.48657,1.05811-2.32318.24121-5.00336.36328-7.96588.36328ZM161.65432,309.20774c-2.99963,0-5.8717.3584-8.53641,1.06543-2.66754.70801-5.16238,1.71387-7.41522,2.98975-2.25241,1.27539-4.30133,2.81543-6.08984,4.57715-1.78754,1.76025-3.32629,3.73193-4.57358,5.86035-1.24655,2.12744-2.21533,4.42236-2.87936,6.8208-.66318,2.396-.99942,4.88721-.99942,7.40479,0,2.53955.35571,5.01807,1.05722,7.36572.7038,2.35449,1.7121,4.59082,2.99695,6.646,1.28635,2.05859,2.87143,3.95947,4.7113,5.65039,1.84222,1.69336,3.94165,3.17285,6.24008,4.39648,2.30002,1.22559,4.83258,2.18457,7.5274,2.85156,2.69461.66699,5.58636,1.00488,8.595,1.00488,2.89386,0,5.50464-.11865,7.7597-.35254,2.2511-.23291,4.34973-.5752,6.23785-1.01611,1.8717-.43701,3.63477-.99023,5.24048-1.64355,1.4444-.5874,2.89587-1.25977,4.32294-2.00146v-23.04248h-18.03772v1.33936h10.61072v21.14307l-.38214.30029c-1.66321,1.30713-3.55609,2.32227-5.62616,3.01709-2.06439.69287-4.40442,1.04395-6.95514,1.04395-3.49728,0-6.8237-.62842-9.88678-1.86865-3.07205-1.24316-5.78165-3.04785-8.05362-5.36426-2.26865-2.3125-4.07651-5.14746-5.37341-8.42627-1.29477-3.27344-1.95126-6.98926-1.95126-11.04346,0-4.01514.60349-7.70703,1.79367-10.97266,1.19574-3.28125,2.89334-6.125,5.04556-8.45312,2.15997-2.33594,4.76608-4.15332,7.74597-5.40088,2.97205-1.24463,6.25235-1.87549,9.74982-1.87549,3.94513,0,7.49243,1.12451,10.5434,3.3418,2.78748,2.02637,5.36011,5.1582,7.65698,9.32031l2.32965-1.55273c-1.00726-1.53564-2.18457-3.03271-3.50854-4.46143-1.54333-1.66504-3.33392-3.15381-5.32202-4.42529-1.98541-1.26953-4.22455-2.30566-6.65521-3.08008-2.41486-.76855-5.07916-1.15869-7.91885-1.15869Z"/><path class="cls-1" d="M201.22247,309.47593h5.28421l36.7358,41.00543h.42274v-41.00543h4.14282v57.36533h-2.19964l-39.82036-45.57099h-.33819v44.26051h-4.22736v-56.05485Z"/><path class="cls-1" d="M248.80804,367.84104h-3.65381l-38.70441-44.29346v42.9834h-6.22736v-58.05518h6.7309l35.71185,39.8623v-39.8623h6.14282v59.36523ZM246.06256,365.84104h.74548v-55.36523h-2.14282v41.00537h-1.86945l-36.73584-41.00537h-3.83746v54.05518h2.22736v-44.26074h1.79236l39.82037,45.5708Z"/><path class="cls-1" d="M284.96656,308.20773l26.37875,57.32306h-9.59612l-8.53928-18.68495h-24.0537l-8.83519,18.68495h-4.73465l27.01286-57.32306h2.36732ZM270.80489,343.2103h20.67181l-10.18795-22.19366-10.48386,22.19366Z"/><path class="cls-1" d="M312.90631,366.53098h-11.79956l-8.53931-18.68506h-22.77795l-8.83514,18.68506h-6.9447l27.95538-59.32324h3.64215l27.29913,59.32324ZM302.39166,364.53098h7.3927l-25.45844-55.32324h-1.09247l-26.07037,55.32324h2.52466l8.83514-18.68506h25.32947l8.53931,18.68506ZM293.03607,344.21018h-23.80957l12.07526-25.56201,11.73431,25.56201ZM272.38324,342.21018h17.53406l-8.64154-18.82471-8.89252,18.82471Z"/><path class="cls-1" d="M363.1728,309.47593v3.63553h-20.29135v52.41932h-9.42702v-52.41932h-20.29135v-3.63553h50.00972Z"/><path class="cls-1" d="M343.88147,366.53098h-11.42706v-52.41943h-20.29132v-5.63574h52.0097v5.63574h-20.29132v52.41943ZM334.4544,364.53098h7.42706v-52.41943h20.29132v-1.63574h-48.0097v1.63574h20.29132v52.41943Z"/><path class="cls-1" d="M371.54298,309.47593h9.42702v36.39761c0,2.39551.40865,4.64446,1.22594,6.74406.81729,2.09959,1.98686,3.93709,3.50871,5.5153,1.52185,1.57822,3.36075,2.8267,5.51671,3.74263s4.55851,1.37248,7.20766,1.37248c2.67733,0,5.08693-.45656,7.22879-1.37248s3.96668-2.16441,5.47444-3.74263c1.50776-1.57822,2.66324-3.41571,3.46644-5.5153.8032-2.09959,1.2048-4.34855,1.2048-6.74406v-36.39761h4.14282v36.39761c0,2.87461-.46501,5.58012-1.39503,8.11654-.93002,2.53642-2.38846,4.75719-4.37532,6.65951s-4.53033,3.41007-7.63039,4.52328c-3.10007,1.11321-6.82015,1.6684-11.16024,1.6684-3.86099,0-7.27811-.55519-10.25136-1.6684-2.97325-1.11321-5.46739-2.62942-7.48243-4.54583-2.01504-1.91641-3.53689-4.16254-4.56555-6.74124s-1.54299-5.33493-1.54299-8.26591v-36.14397Z"/><path class="cls-1" d="M395.38531,367.84104c-3.96527,0-7.53223-.58252-10.60187-1.73145-3.08472-1.15479-5.71606-2.75586-7.82104-4.75781-2.11151-2.0083-3.72821-4.39551-4.80524-7.09521-1.07111-2.68506-1.6142-5.59082-1.6142-8.63672v-37.14404h11.42706v37.39795c0,2.26025.38953,4.40723,1.15778,6.38086.76483,1.96484,1.87396,3.70898,3.29669,5.18408,1.42249,1.4751,3.16797,2.6582,5.18793,3.5166,2.01947.85742,4.31299,1.29248,6.81659,1.29248,2.53082,0,4.83069-.43457,6.83575-1.2915,2.00519-.85742,3.73608-2.04004,5.14447-3.51416,1.40881-1.47461,2.50409-3.21777,3.25549-5.18213.75562-1.9751,1.13873-4.12354,1.13873-6.38623v-37.39795h6.14282v37.39795c0,2.979-.48993,5.82568-1.45618,8.46045-.979,2.67041-2.5343,5.03809-4.62256,7.0376-2.07953,1.99121-4.76569,3.58691-7.98407,4.74219-3.19208,1.146-7.06061,1.72705-11.49817,1.72705ZM372.54296,310.4758v35.14404c0,2.79102.49518,5.44727,1.47186,7.89551.96936,2.43018,2.4248,4.5791,4.32587,6.38721,1.90906,1.81592,4.31262,3.27393,7.14392,4.33398,2.84454,1.06445,6.17566,1.60449,9.9007,1.60449,4.2066,0,7.84778-.5415,10.82239-1.60938,2.9527-1.06006,5.40094-2.5083,7.27667-4.3042,1.86603-1.78662,3.25488-3.90039,4.12799-6.28174.88513-2.41357,1.33392-5.02832,1.33392-7.77197v-35.39795h-2.14282v35.39795c0,2.50781-.42755,4.89697-1.27081,7.10107-.84674,2.21338-2.08398,4.18115-3.67737,5.84912-1.59613,1.67041-3.54895,3.00684-5.8042,3.97119-2.25513.96387-4.81952,1.45264-7.62207,1.45264-2.77374,0-5.33026-.48828-7.59851-1.45166-2.26886-.96387-4.2356-2.29932-5.8457-3.96875-1.60754-1.66699-2.85938-3.63428-3.72076-5.84717-.85864-2.20605-1.29401-4.59668-1.29401-7.10645v-35.39795h-7.42706Z"/><path class="cls-1" d="M434.27707,309.47593h19.44588c3.35371,0,6.29877.36074,8.83519,1.07939,2.53642.71865,4.6501,1.72476,6.34105,3.02116,1.69095,1.29639,2.9662,2.84079,3.82576,4.63037s1.28935,3.73981,1.28935,5.85349c0,1.74731-.33114,3.38189-.99343,4.90374-.66229,1.52185-1.59231,2.89715-2.79006,4.12309-1.19775,1.22594-2.6421,2.28278-4.33305,3.17052-1.69095.88775-3.55099,1.58385-5.58012,2.09114l20.41817,27.18195h-10.94887l-19.48815-26.33648h-6.59469v26.33648h-9.42702v-56.05485ZM443.70409,336.36197h5.4533c2.11368,0,4.06532-.28182,5.8549-.84547s3.33962-1.35839,4.6501-2.38705c1.31048-1.02866,2.3321-2.27714,3.06484-3.74263s1.09911-3.11416,1.09911-4.94602c0-1.69095-.28887-3.24098-.86661-4.6501-.57774-1.40912-1.39503-2.61251-2.45187-3.61299-1.05684-1.00048-2.31096-1.78395-3.76235-2.3476-1.4514-.56365-3.03666-.84547-4.75578-.84547h-8.28563v23.37733Z"/><path class="cls-1" d="M482.73761,366.53098h-13.45471l-19.48816-26.33691h-5.09064v26.33691h-11.427v-58.05518h20.44586c3.42682,0,6.49109.37598,9.10785,1.11768,2.64905.75049,4.89545,1.82373,6.67682,3.18945,1.80798,1.38574,3.19373,3.06494,4.11877,4.99072.9209,1.91748,1.38788,4.03271,1.38788,6.28662,0,1.87744-.36218,3.66113-1.07648,5.30273-.70831,1.62793-1.71484,3.11572-2.99164,4.42285-1.26514,1.29492-2.80725,2.42432-4.58356,3.35693-1.3443.70605-2.80743,1.30127-4.36505,1.77734l20.74005,27.61084ZM470.29095,364.53098h8.44299l-20.12115-26.78662,1.46228-.36572c1.9455-.48633,3.74811-1.16162,5.35791-2.00635,1.59052-.83496,2.96405-1.83887,4.08252-2.98389,1.10651-1.13281,1.97736-2.41895,2.58844-3.82324.60406-1.38818.91034-2.90381.91034-4.50488,0-1.95166-.40063-3.77539-1.19073-5.42041-.78772-1.64014-1.97632-3.07666-3.53278-4.27002-1.57996-1.21094-3.6004-2.1709-6.00525-2.85254-2.43933-.69092-5.32019-1.0415-8.56256-1.0415h-18.44586v54.05518h7.427v-26.33691h8.09869l19.48816,26.33691ZM449.15741,337.36203h-6.45331v-25.37744h9.28564c1.83594,0,3.55786.30762,5.11792.91357,1.56378.60693,2.93921,1.46631,4.08771,2.55371,1.15594,1.09375,2.06091,2.42578,2.68964,3.95947.62463,1.52344.94135,3.21582.94135,5.0293,0,1.97949-.40533,3.79443-1.20465,5.39355-.79675,1.59326-1.92108,2.9668-3.3418,4.08203-1.39825,1.09717-3.0694,1.95654-4.96735,2.55371-1.87775.5918-3.94873.89209-6.15515.89209ZM444.7041,335.36203h4.45331c2.00226,0,3.87097-.26904,5.55426-.79932,1.6676-.52539,3.12549-1.27197,4.33344-2.21973,1.18622-.93115,2.12421-2.07617,2.78772-3.40332.65924-1.31885.99353-2.83252.99353-4.49902,0-1.55225-.26642-2.98877-.79187-4.27051-.52039-1.26953-1.26526-2.36816-2.21393-3.26562-.95947-.90869-2.11578-1.62891-3.43695-2.14209-1.32855-.51611-2.8067-.77783-4.39386-.77783h-7.28564v21.37744Z"/><path class="cls-1" d="M527.36363,309.47593v3.63553h-29.54928v20.03771h19.78407v3.63553h-19.78407v25.11054h29.54928v3.63553h-38.9763v-56.05485h38.9763Z"/><path class="cls-1" d="M528.36364,366.53098h-40.97632v-58.05518h40.97632v5.63574h-29.54932v18.0376h19.78412v5.63574h-19.78412v23.11035h29.54932v5.63574ZM489.38733,364.53098h36.97632v-1.63574h-29.54932v-27.11035h19.78412v-1.63574h-19.78412v-22.0376h29.54932v-1.63574h-36.97632v54.05518Z"/></svg>