<?xml version="1.0" encoding="UTF-8"?><svg id="Layer_1" xmlns="http://www.w3.org/2000/svg" viewBox="0 0 1080 1440.60619"><defs><style>.cls-1{fill:#403f3f;}.cls-2{fill:#f4ece1;}.cls-3{stroke:#303030;stroke-miterlimit:10;stroke-width:.23704px;}.cls-3,.cls-4{fill:#4c4c4c;}</style></defs><rect class="cls-2" width="1080" height="1440.60619"/><path class="cls-4" d="M556.1362,1333.73614c0,.05859-.01465.10938-.04395.15332-.0293.04297-.08008.07812-.15283.10352-.07324.02539-.16943.04688-.29004.06543-.12012.01855-.26758.02734-.44238.02734-.18994,0-.34277-.00879-.45947-.02734s-.21143-.04004-.28418-.06543-.12402-.06055-.15283-.10352c-.0293-.04395-.04395-.09473-.04395-.15332v-6.27539h-6.43848v6.27539c0,.05859-.01465.10938-.04395.15332-.0293.04297-.08008.07812-.15283.10352-.07324.02539-.16943.04688-.29004.06543-.12012.01855-.27148.02734-.45361.02734-.1748,0-.32422-.00879-.44824-.02734s-.22217-.04004-.29492-.06543c-.07324-.02539-.12402-.06055-.15332-.10352-.02881-.04395-.04346-.09473-.04346-.15332v-13.57715c0-.05859.01465-.10938.04346-.15332.0293-.04395.08008-.07812.15332-.10352.07275-.02539.1709-.04785.29492-.06543.12402-.01855.27344-.02734.44824-.02734.18213,0,.3335.00879.45361.02734.12061.01758.2168.04004.29004.06543.07275.02539.12354.05957.15283.10352s.04395.09473.04395.15332v5.66211h6.43848v-5.66211c0-.05859.01465-.10938.04395-.15332.02881-.04395.08008-.07812.15283-.10352s.16748-.04785.28418-.06543c.1167-.01855.26953-.02734.45947-.02734.1748,0,.32227.00879.44238.02734.12061.01758.2168.04004.29004.06543.07275.02539.12354.05957.15283.10352s.04395.09473.04395.15332v13.57715Z"/><path class="cls-4" d="M568.08493,1328.40118c0,.28418-.07178.48633-.21436.60645-.14258.12109-.30566.18066-.48877.18066h-6.479c0,.54688.05469,1.03906.16455,1.47559.10986.4375.29297.81348.54932,1.12598.25586.31348.58936.55469.99951.72168.41016.16797.91162.25195,1.50488.25195.46875,0,.88623-.03906,1.25244-.11523s.68262-.16211.9502-.25684c.26709-.09473.48682-.18066.65918-.25684.17188-.07617.30176-.11523.39014-.11523.05127,0,.09668.01367.13721.03906.04004.02539.07129.06348.09326.11426s.03857.12207.04932.21289c.01074.0918.0166.20312.0166.33398,0,.09473-.00391.17676-.01074.24609-.00781.06934-.0166.13086-.02734.18555-.01123.05469-.0293.10352-.05469.14746-.02588.04395-.05859.08594-.09863.12598s-.15869.10547-.35547.19629c-.19678.0918-.45166.18066-.76514.26855-.31348.08691-.67578.16504-1.0874.23438-.41211.06934-.85107.10449-1.31738.10449-.80908,0-1.51807-.11328-2.12646-.33887-.6084-.22656-1.12012-.56152-1.53564-1.00586s-.729-1.00195-.94043-1.67285c-.21143-.66992-.31689-1.4502-.31689-2.33887,0-.8457.10938-1.60547.32812-2.2793.21875-.6748.53369-1.24707.94531-1.7168s.90918-.83105,1.49219-1.08203c.58301-.25195,1.23535-.37695,1.95703-.37695.77246,0,1.43018.12402,1.97314.37109.54297.24805.98926.58105,1.33936,1.00098.34961.41895.60645.91016.77051,1.47559.16406.56445.24609,1.16797.24609,1.80859v.32812ZM566.26999,1327.86603c.02197-.94727-.18896-1.69141-.63232-2.23047-.44385-.53906-1.10205-.80859-1.97412-.80859-.44775,0-.83984.08398-1.17725.25098-.3374.16797-.61963.38965-.84668.66699-.22754.27734-.40332.59961-.52832.96777-.12451.36816-.19385.75195-.2085,1.15332h5.36719Z"/><path class="cls-4" d="M578.2402,1333.75763c0,.08789-.0293.15332-.0874.19727-.05859.04395-.13867.07617-.24072.09863-.10205.02148-.25146.03223-.44824.03223-.18945,0-.34082-.01074-.45361-.03223-.11328-.02246-.19482-.05469-.24609-.09863-.05078-.04395-.07617-.10938-.07617-.19727v-.9834c-.43018.45898-.90967.81641-1.4375,1.07129-.52881.25488-1.08789.38281-1.67822.38281-.51758,0-.98584-.06738-1.40479-.20215s-.77637-.33008-1.07129-.58496c-.29541-.25488-.5249-.56836-.68896-.94043-.16357-.37207-.24561-.79395-.24561-1.26855,0-.55371.11279-1.03418.33887-1.44238.22559-.4082.55029-.74707.97266-1.0166.42285-.26953.94043-.47168,1.55225-.60645.6123-.13477,1.30127-.20312,2.06641-.20312h1.35547v-.76465c0-.37891-.04004-.71387-.12012-1.00586-.08057-.29102-.20947-.53418-.38818-.72656-.17871-.19336-.41016-.33887-.69434-.4375s-.63379-.14746-1.04932-.14746c-.44482,0-.84375.05273-1.19678.1582-.354.10547-.66357.22266-.92969.34961-.26611.12793-.48828.24414-.6665.34961-.17871.10645-.31152.15918-.39893.15918-.05859,0-.10938-.01465-.15332-.04395-.04346-.0293-.08203-.07324-.11475-.13086-.03271-.05859-.05664-.13281-.0708-.22461-.01465-.09082-.02197-.19141-.02197-.30078,0-.18164.0127-.32617.03809-.43164s.0874-.20605.18604-.30078c.09814-.09473.26758-.20508.5083-.33301.24023-.12793.51709-.24414.83057-.34961s.65625-.19336,1.02783-.2627.74707-.10352,1.12598-.10352c.70654,0,1.30811.08008,1.80371.24023s.89648.39551,1.20264.70508.52832.69434.6665,1.15332c.13867.45898.20801.99512.20801,1.60645v6.63574ZM576.44723,1329.26544h-1.5415c-.49561,0-.92529.04199-1.29004.125-.36426.08398-.6665.20801-.90723.37207-.24023.16406-.41699.36035-.53027.58984-.11279.22949-.16943.49414-.16943.79297,0,.50977.16211.91602.48682,1.21875.32422.30273.77783.4541,1.36084.4541.47363,0,.9126-.12012,1.31738-.36133.4043-.24023.82861-.6084,1.27344-1.10352v-2.08789Z"/><path class="cls-4" d="M583.35593,1333.74689c0,.05859-.01465.10742-.04346.14746-.0293.04004-.07666.0752-.14209.10449-.06543.02832-.15674.05078-.27344.06543s-.26611.02148-.44824.02148c-.1748,0-.3208-.00684-.43701-.02148-.1167-.01465-.20996-.03711-.27881-.06543-.06934-.0293-.1167-.06445-.14209-.10449-.02588-.04004-.03857-.08887-.03857-.14746v-14.60449c0-.05859.0127-.10938.03857-.15332.02539-.04395.07275-.08008.14209-.10938.06885-.0293.16211-.05078.27881-.06543.11621-.01465.26221-.02148.43701-.02148.18213,0,.33154.00684.44824.02148s.20801.03613.27344.06543.11279.06543.14209.10938c.02881.04395.04346.09473.04346.15332v14.60449Z"/><path class="cls-4" d="M591.17282,1334.02032l-1.31201,3.61816c-.04395.11719-.15479.20605-.3335.26855-.17871.06152-.4502.09277-.81445.09277-.18945,0-.34229-.00977-.45898-.02734-.1167-.01855-.20605-.0498-.26807-.09277-.06201-.04395-.09668-.10254-.10352-.17578-.00732-.07227.01074-.16016.05469-.26172l1.35547-3.42188c-.06543-.0293-.12744-.07617-.18604-.14258-.05811-.06543-.09814-.13477-.12012-.20703l-3.50928-9.40137c-.05811-.15332-.0874-.27344-.0874-.36133,0-.08691.0293-.15625.0874-.20703.05859-.05078.15332-.08594.28418-.10449.13135-.01758.30615-.02734.5249-.02734s.38965.00586.51367.0166.22217.03125.29541.06055c.07275.0293.12549.07031.1582.125.0332.05469.06738.12988.104.22461l2.80957,7.89258h.03271l2.71094-7.93652c.04395-.13867.09668-.22754.15869-.26758s.15479-.06934.27881-.08789c.12402-.01758.30225-.02734.53564-.02734.2041,0,.37158.00977.50293.02734.13086.01855.22754.05371.28955.10449s.09277.12012.09277.20703c0,.08789-.02148.19727-.06543.32812l-3.53076,9.78418Z"/><path class="cls-4" d="M603.89743,1333.75763c0,.08789-.0293.15332-.0874.19727-.05859.04395-.13867.07617-.24072.09863-.10205.02148-.25146.03223-.44824.03223-.18945,0-.34082-.01074-.45361-.03223-.11328-.02246-.19482-.05469-.24609-.09863-.05078-.04395-.07617-.10938-.07617-.19727v-.9834c-.43018.45898-.90967.81641-1.4375,1.07129-.52881.25488-1.08789.38281-1.67822.38281-.51758,0-.98584-.06738-1.40479-.20215s-.77637-.33008-1.07129-.58496c-.29541-.25488-.5249-.56836-.68896-.94043-.16357-.37207-.24561-.79395-.24561-1.26855,0-.55371.11279-1.03418.33887-1.44238.22559-.4082.55029-.74707.97266-1.0166.42285-.26953.94043-.47168,1.55225-.60645.6123-.13477,1.30127-.20312,2.06641-.20312h1.35547v-.76465c0-.37891-.04004-.71387-.12012-1.00586-.08057-.29102-.20947-.53418-.38818-.72656-.17871-.19336-.41016-.33887-.69434-.4375s-.63379-.14746-1.04932-.14746c-.44482,0-.84375.05273-1.19678.1582-.354.10547-.66357.22266-.92969.34961-.26611.12793-.48828.24414-.6665.34961-.17871.10645-.31152.15918-.39893.15918-.05859,0-.10938-.01465-.15332-.04395-.04346-.0293-.08203-.07324-.11475-.13086-.03271-.05859-.05664-.13281-.0708-.22461-.01465-.09082-.02197-.19141-.02197-.30078,0-.18164.0127-.32617.03809-.43164s.0874-.20605.18604-.30078c.09814-.09473.26758-.20508.5083-.33301.24023-.12793.51709-.24414.83057-.34961s.65625-.19336,1.02783-.2627.74707-.10352,1.12598-.10352c.70654,0,1.30811.08008,1.80371.24023s.89648.39551,1.20264.70508.52832.69434.6665,1.15332c.13867.45898.20801.99512.20801,1.60645v6.63574ZM602.10446,1329.26544h-1.5415c-.49561,0-.92529.04199-1.29004.125-.36426.08398-.6665.20801-.90723.37207-.24023.16406-.41699.36035-.53027.58984-.11279.22949-.16943.49414-.16943.79297,0,.50977.16211.91602.48682,1.21875.32422.30273.77783.4541,1.36084.4541.47363,0,.9126-.12012,1.31738-.36133.4043-.24023.82861-.6084,1.27344-1.10352v-2.08789Z"/><path class="cls-4" d="M615.68161,1333.74689c0,.05859-.01465.10742-.04346.14746-.0293.04004-.07666.0752-.14209.10449-.06592.02832-.15674.05078-.27344.06543s-.26221.02148-.43701.02148c-.18262,0-.33203-.00684-.44824-.02148-.1167-.01465-.20801-.03711-.27344-.06543-.06543-.0293-.11328-.06445-.14209-.10449-.0293-.04004-.04395-.08887-.04395-.14746v-5.76074c0-.56152-.04346-1.0127-.13086-1.35547s-.21533-.6377-.38281-.88574-.38428-.4375-.65039-.56836-.57373-.19727-.92383-.19727c-.45166,0-.90381.16113-1.35547.48145-.45215.32031-.92578.79102-1.42139,1.41016v6.87598c0,.05859-.01465.10742-.04346.14746-.0293.04004-.07666.0752-.14209.10449-.06543.02832-.15674.05078-.27344.06543s-.26611.02148-.44824.02148c-.1748,0-.3208-.00684-.43701-.02148-.1167-.01465-.20996-.03711-.27881-.06543-.06934-.0293-.1167-.06445-.14209-.10449-.02588-.04004-.03857-.08887-.03857-.14746v-14.60449c0-.05859.0127-.10938.03857-.15332.02539-.04395.07275-.08008.14209-.10938.06885-.0293.16211-.05078.27881-.06543.11621-.01465.26221-.02148.43701-.02148.18213,0,.33154.00684.44824.02148s.20801.03613.27344.06543.11279.06543.14209.10938c.02881.04395.04346.09473.04346.15332v5.8916c.51758-.5459,1.03857-.95215,1.56348-1.21875.5249-.26562,1.05322-.39844,1.58496-.39844.65625,0,1.20801.11133,1.65625.33301.44824.22266.81055.51953,1.08789.89062.27686.37207.47559.80762.5957,1.30664s.18018,1.10254.18018,1.80957v5.99023Z"/><path class="cls-4" d="M620.98337,1320.58478c0,.42285-.08057.71094-.24072.86426-.16016.15234-.45557.22949-.88525.22949-.42285,0-.7124-.0752-.86914-.22461s-.23486-.43164-.23486-.84668c0-.42285.08008-.71094.24023-.86426.16016-.15234.45557-.22949.88574-.22949.42236,0,.71191.0752.86914.22461.15625.14941.23486.43164.23486.84668ZM620.77536,1333.74689c0,.05859-.01465.10742-.04346.14746-.0293.04004-.07666.0752-.14209.10449-.06543.02832-.15674.05078-.27344.06543s-.26611.02148-.44824.02148c-.1748,0-.3208-.00684-.43701-.02148-.1167-.01465-.20996-.03711-.27881-.06543-.06934-.0293-.1167-.06445-.14209-.10449-.02588-.04004-.03857-.08887-.03857-.14746v-9.83887c0-.05078.0127-.09766.03857-.1416.02539-.04395.07275-.08008.14209-.10938.06885-.0293.16211-.05078.27881-.06543.11621-.01465.26221-.02246.43701-.02246.18213,0,.33154.00781.44824.02246s.20801.03613.27344.06543.11279.06543.14209.10938c.02881.04395.04346.09082.04346.1416v9.83887Z"/><path class="cls-4" d="M631.52194,1333.75763c0,.08789-.0293.15332-.0874.19727-.05859.04395-.13867.07617-.24072.09863-.10205.02148-.25146.03223-.44824.03223-.18945,0-.34082-.01074-.45361-.03223-.11328-.02246-.19482-.05469-.24609-.09863-.05078-.04395-.07617-.10938-.07617-.19727v-.9834c-.43018.45898-.90967.81641-1.4375,1.07129-.52881.25488-1.08789.38281-1.67822.38281-.51758,0-.98584-.06738-1.40479-.20215s-.77637-.33008-1.07129-.58496c-.29541-.25488-.5249-.56836-.68896-.94043-.16357-.37207-.24561-.79395-.24561-1.26855,0-.55371.11279-1.03418.33887-1.44238.22559-.4082.55029-.74707.97266-1.0166.42285-.26953.94043-.47168,1.55225-.60645.6123-.13477,1.30127-.20312,2.06641-.20312h1.35547v-.76465c0-.37891-.04004-.71387-.12012-1.00586-.08057-.29102-.20947-.53418-.38818-.72656-.17871-.19336-.41016-.33887-.69434-.4375s-.63379-.14746-1.04932-.14746c-.44482,0-.84375.05273-1.19678.1582-.354.10547-.66357.22266-.92969.34961-.26611.12793-.48828.24414-.6665.34961-.17871.10645-.31152.15918-.39893.15918-.05859,0-.10938-.01465-.15332-.04395-.04346-.0293-.08203-.07324-.11475-.13086-.03271-.05859-.05664-.13281-.0708-.22461-.01465-.09082-.02197-.19141-.02197-.30078,0-.18164.0127-.32617.03809-.43164s.0874-.20605.18604-.30078c.09814-.09473.26758-.20508.5083-.33301.24023-.12793.51709-.24414.83057-.34961s.65625-.19336,1.02783-.2627.74707-.10352,1.12598-.10352c.70654,0,1.30811.08008,1.80371.24023s.89648.39551,1.20264.70508.52832.69434.6665,1.15332c.13867.45898.20801.99512.20801,1.60645v6.63574ZM629.72897,1329.26544h-1.5415c-.49561,0-.92529.04199-1.29004.125-.36426.08398-.6665.20801-.90723.37207-.24023.16406-.41699.36035-.53027.58984-.11279.22949-.16943.49414-.16943.79297,0,.50977.16211.91602.48682,1.21875.32422.30273.77783.4541,1.36084.4541.47363,0,.9126-.12012,1.31738-.36133.4043-.24023.82861-.6084,1.27344-1.10352v-2.08789Z"/><path class="cls-3" d="M485.79577,1336.05646h-2.55948c-.23474,0-.42442-.18969-.42442-.42441s.18968-.42442.42442-.42442h2.55948c2.01119,0,3.64822-1.63616,3.64822-3.64736v-8.99324c0-2.0112-1.63702-3.64736-3.64822-3.64736h-8.99238c-2.01207,0-3.64823,1.63616-3.64823,3.64736v8.99324c0,2.0112,1.63617,3.64736,3.64823,3.64736h2.58719c.23386,0,.42441.18969.42441.42442s-.19054.42441-.42441.42441h-2.58719c-2.4798,0-4.49706-2.01726-4.49706-4.49619v-8.99324c0-2.47892,2.01726-4.49619,4.49706-4.49619h8.99238c2.47892,0,4.49618,2.01727,4.49618,4.49619v8.99324c0,2.47892-2.01726,4.49619-4.49618,4.49619"/><path class="cls-3" d="M481.2995,1336.05646c-.11174,0-.22087-.04504-.2997-.12386-.07968-.07969-.12472-.18882-.12472-.30055s.04504-.22087.12472-.29969c.07882-.07969.18795-.12473.2997-.12473.11173,0,.22086.04504.29968.12473.07968.07882.12472.18795.12472.29969s-.04504.22087-.12472.30055c-.07882.07882-.18795.12386-.29968.12386"/><path class="cls-3" d="M477.57167,1323.54066c-.1126,0-.22521-.04417-.30835-.13339-.16111-.16976-.15331-.43827.01731-.59937l.01906-.01733c.17064-.16024.43914-.15157.59938.01906.16024.1715.15071.44-.01992.59938l-.01645.01645c-.08229.07622-.18709.11519-.29103.11519"/><path class="cls-3" d="M481.2995,1324.09431c-1.63704,0-2.97003,1.33301-2.97003,2.97003s1.33299,2.9683,2.97003,2.9683,2.97002-1.33127,2.97002-2.9683-1.33299-2.97003-2.97002-2.97003M481.2995,1330.88146c-2.10475,0-3.81714-1.71238-3.81714-3.81713,0-2.10561,1.71238-3.81799,3.81714-3.81799s3.81713,1.71238,3.81713,3.81799c0,2.10475-1.71238,3.81713-3.81713,3.81713"/><path class="cls-3" d="M487.00873,1320.55112c-.38391,0-.69671.26863-.69671.59915s.3128.59914.69671.59914.6967-.26863.6967-.59914-.3128-.59915-.6967-.59915M487.00873,1322.41588c-.81046,0-1.47004-.56786-1.47004-1.26561s.65959-1.26562,1.47004-1.26562,1.47003.56786,1.47003,1.26562-.65959,1.26561-1.47003,1.26561"/><path class="cls-4" d="M458.68349,1325.75954l6.34347-7.70308h-1.60151l-5.48328,6.65835-4.72319-6.65835h-4.74092l6.90963,9.76127-6.90963,8.38914h1.60151l6.0484-7.34337,5.1976,7.34337h4.76907l-7.41114-10.44733ZM450.54146,1319.12413h2.12596l11.36069,16.01507h-2.14994l-11.33671-16.01507Z"/><path class="cls-4" d="M502.5138,1336.2839c-4.7153-.3816-7.10927-6.19543-3.95922-9.79785,1.48858-1.70234,3.72419-2.41773,5.94761-1.95172v4.12139c-.94811-.33246-1.83617-.56368-2.67571.16226-1.28806,1.11375-.70852,3.23389.96286,3.52092,1.10988.1906,2.26714-.59855,2.36491-1.74771.09775-1.14901-.0128-2.54499-.0028-3.72651.00072-.08541.03847-.16468.03913-.25009.02298-2.94648-.0203-5.89463-.00149-8.84078h3.94063c-.13674,1.56594.5774,3.07537,1.95156,3.85092.82046.46305,1.67355.52986,2.60366.52353v3.90447c-1.59297.09064-3.17913-.19489-4.55486-1.01226-.01508,1.69289.0198,3.38784-.00232,5.08104-.00865.66189-.01167,1.13917-.18908,1.79574-.62319,2.30642-2.79313,4.17183-5.1957,4.36665-.33389.02707-.89526.02702-1.22919,0ZM508.04513,1318.85839h-1.77147v11.83995c0,.37194-.3199,1.10652-.5339,1.41834-1.2962,1.88867-4.16661,1.78424-5.31578-.19618-1.27314-2.19408.47213-4.8688,2.95748-4.71087v-1.69917c-2.26571-.11999-4.41729,1.39921-4.98635,3.59987-.98582,3.81234,2.66797,7.04035,6.35188,5.80959,1.90364-.63599,3.21903-2.43204,3.29964-4.437l-.03746-7.57527c.02532-.02875.14502.07112.17695.09382.29955.21293.57354.46824.87523.67932,1.03627.72502,2.25762,1.22451,3.53899,1.25122v-1.69917c-2.34096-.18785-4.28676-2.03633-4.55522-4.37446Z"/><path class="cls-4" d="M518.69289,1330.84653c.13011-.89612,1.1446-1.00025,1.80518-1.29162.9582-.42264,1.53022-1.20638,1.82938-2.19411-.7626-.27974-1.58838-.48426-1.85561-1.35294-.39417-1.2813.77116-2.31127,2.00376-1.87428.04866-.77504.00028-1.53744.16604-2.30035.4308-1.98272,2.01501-3.67254,3.95959-4.23672,3.13787-.91039,6.4398,1.07023,7.12381,4.24455.1655.76805.13281,1.51251.17387,2.29251,1.2326-.43699,2.39793.59298,2.00376,1.87428-.26723.86868-1.09301,1.07319-1.85561,1.35294.29918.98786.87132,1.77153,1.82938,2.19411.7132.31458,1.80916.4199,1.80848,1.4585-.00078,1.1852-1.425,1.53161-2.35343,1.68399-.13376.79085-.55453,1.42052-1.41291,1.48833-1.06487.08412-1.55425-.27746-2.61679.27602-1.23847.64512-1.97282,1.29378-3.50338,1.16847-1.26808-.10382-2.05256-.94268-3.12127-1.3663-.98924-.39212-2.24256.31825-3.10879-.4516-.32207-.28623-.4327-.69454-.51035-1.10269-.87787-.17604-2.21734-.444-2.36512-1.52932-.01033-.07583-.01089-.25876,0-.33379ZM534.81409,1325.14712c-.37982-.32099-1.16954.32753-1.65456.00393-.17078-.11394-.24202-.27979-.26175-.48-.10192-1.03413.05312-2.0495-.28-3.05786-1.21608-3.68105-6.12114-4.39458-8.30276-1.14774-.85964,1.27938-.7492,2.3054-.83747,3.76136-.02159.35609.07922.71435-.28477.93911-.51045.31519-1.54083-.5208-1.76806.19754-.24744.78221,1.19598.94098,1.65767,1.22337.517.31622.29186.88202.1264,1.33958-.40979,1.13324-1.16569,2.05244-2.2774,2.54396-.19876.08788-1.13824.37499-1.20215.47726-.16797.26879.42185.48931.59689.54652.32718.10694,1.4203.2445,1.59183.3738.2827.21309-.09306,1.23999.65103,1.31447.42075.04212,1.00623-.08159,1.44747-.07509,1.30652.01925,2.1734,1.04395,3.35503,1.39214,2.16506.63796,3.12926-1.3809,5.02388-1.39284.42743-.00269,1.00172.11667,1.41015.07579.74408-.07448.36833-1.10138.65103-1.31447.16838-.12692,1.22238-.25946,1.53536-.3561.22348-.069,1.018-.39723.53692-.64192-.74649-.37967-1.35724-.39851-2.07424-1.00579-.61007-.51671-1.4009-1.79866-1.48309-2.59619-.09444-.91642,1.2555-.87356,1.78097-1.29768.23931-.19315.31635-.60789.06163-.82316Z"/><rect class="cls-2" width="1080" height="1440.60619"/><rect class="cls-1" x="438.52216" y="268.72916" width="1.23761" height="1.36789"/><rect class="cls-1" x="436.48656" y="268.72916" width="1.23761" height="1.36789"/><rect class="cls-1" x="460.37646" y="268.72916" width="1.23775" height="1.36789"/><rect class="cls-1" x="462.41212" y="268.72916" width="1.23775" height="1.36789"/><path class="cls-1" d="M471.15732,266.30253h-8.50076v-7.01883h-1.25409v7.01883h-8.35413v-4.39681c0-1.85662-.89034-2.78489-2.67068-2.78489-.81427,0-2.04125.16856-3.68041.50503l.0489.92807.4559-.04883c1.44383-.1736,2.41018-.2606,2.89876-.2606.56432,0,.9878.13859,1.27023.41531.28216.27695.42334.68681.42334,1.22954v4.41319h-13.02799v-7.01883h-1.25382v7.01883h-10.11309c-.42334,0-.7465-.01342-.96893-.04066-.22264-.02704-.43158-.10587-.62691-.23605l-.52121.92827c.48859.31488,1.15629.47211,2.00318.47211h.39079c.01062.06521.01635.16836.01635.30944,0,.75971-.20929,1.38676-.62711,1.8809-.41803.49393-1.01245.74112-1.7832.74112l-4.29921-.01638c-.53211,0-1.02342-.10859-1.4738-.32578-.45065-.21719-.80889-.52662-1.07477-.92807-.26616-.40189-.39896-.85789-.39896-1.36813,0-.48849.11932-1.5306.35823-3.12661l-1.18878-.19536c-.2825,1.73709-.42348,2.93687-.42348,3.59892,0,.67291.18981,1.27272.57004,1.79955.37982.52642.89565.93628,1.54701,1.22957.6515.29306,1.37327.43962,2.16595.43962h4.28294c1.1616,0,2.05188-.34761,2.67082-1.04235.61867-.69478.92814-1.62305.92814-2.78469v-.21174h43.46465v-11.69255h-1.25389v10.56888Z"/><rect class="cls-1" x="475.34239" y="255.73365" width="1.25409" height="11.69255"/><rect class="cls-1" x="484.82053" y="256.40136" width="1.23747" height="1.36793"/><rect class="cls-1" x="486.85619" y="256.40136" width="1.23747" height="1.36793"/><rect class="cls-1" x="498.06006" y="268.72916" width="1.23775" height="1.36789"/><path class="cls-1" d="M515.70497,259.85375c-1.00442-.84675-2.27192-1.27023-3.80266-1.27023-1.0967,0-2.35059.19015-3.76186.57001l.08159.9608c.74902-.13039,1.39221-.2306,1.92969-.30126.53735-.07042,1.04467-.10587,1.5227-.10587,1.23747,0,2.26069.32309,3.0695.96897.80882.64615,1.21343,1.77254,1.21343,3.37901v2.24737h-2.3939v-1.30272c0-.55366-.13315-1.05573-.39889-1.50625-.26629-.45055-.62459-.80337-1.07484-1.05873-.45079-.25488-.93652-.38258-1.45773-.38258-.53204,0-1.02321.13315-1.47373.39896-.45052.26626-.80882.62432-1.07484,1.07484-.26609.45052-.39896.94193-.39896,1.47376v1.30272h-8.37034v-7.01883h-1.25409v7.01883h-8.35406v-7.00245c-.42348-.04318-1.05046-.08408-1.88086-.12225-.83061-.03793-1.44696-.057-1.84845-.057-.91193,0-1.63664.14132-2.17392.42348-.53755.2824-.9231.72747-1.15643,1.33541-.2336.60818-.35006,1.41676-.35006,2.42639,0,1.02076.12218,1.82686.36641,2.41845.24423.59183.64319,1.02325,1.19688,1.29451.55383.2715,1.31361.40713,2.28003.40713h31.07167v-3.40353c0-1.93225-.50234-3.32221-1.50628-4.16893ZM488.4519,266.30253h-2.1005c-.70598,0-1.25961-.10018-1.66122-.30126-.40168-.2006-.69209-.51821-.87134-.95259-.17898-.43417-.26847-1.02601-.26847-1.77506,0-1.07484.20057-1.84569.60246-2.31255.40141-.46666,1.09643-.70022,2.08443-.70022.52121,0,1.2594.03252,2.21465.0977v5.94399ZM512.30945,266.30253h-3.37087v-1.44925c0-.46666.1627-.8631.48845-1.18888.32582-.32558.72723-.48849,1.20499-.48849.47783,0,.87679.16291,1.19709.48849.32016.32578.48035.72222.48035,1.18888v1.44925Z"/><path class="cls-1" d="M612.23279,189.39473v-10.93757h4.3648c1.58119,0,2.93741.14233,4.06828.42699,1.13047.28466,2.06379.6961,2.79917,1.23353.73537.53769,1.27689,1.1824,1.62494,1.93332.34766.75119.52188,1.58567.52188,2.50264,0,.85398-.14642,1.64866-.43885,2.38404-.29283.73537-.72351,1.36795-1.29284,1.89774-.22071.20549-.46635.38838-.72511.55931h5.57601c.42198-.35477.78595-.72213,1.07954-1.10491.44254-.57723.75093-1.20586.92515-1.88588.17383-.67976.26094-1.45493.26094-2.32473,0-1.13864-.27689-2.1824-.83026-3.13127-.55377-.94887-1.3325-1.76332-2.33659-2.44334-1.00448-.67976-2.20612-1.20586-3.60571-1.5775-1.39958-.37138-2.93781-.55746-4.61388-.55746h-12.66741v13.02508h5.28995Z"/><path class="cls-1" d="M630.60528,194.12538c-.22267-.22806-.46694-.43727-.72116-.63772h-6.60247c.62176.28829,1.15729.62728,1.60669,1.01727.71943.62494,1.23722,1.364,1.55377,2.21798.31616.85398.47443,1.77913.47443,2.77544,0,.88588-.17791,1.70006-.53374,2.44334-.35583.74354-.90143,1.37981-1.6368,1.9096-.73537.53005-1.66869.94096-2.79917,1.23353-1.13087.29283-2.46337.43885-3.99711.43885h-5.71694v-12.03602h-5.28995v14.33703h14.68376c1.67607,0,3.19058-.2214,4.54271-.66421,1.35214-.44254,2.50633-1.04745,3.46338-1.81471.95665-.767,1.69202-1.66843,2.20612-2.70428.51371-1.03559.77096-2.14682.77096-3.33291,0-1.04376-.17422-2.00449-.52188-2.88219-.34805-.8777-.84212-1.64471-1.48261-2.30101Z"/><polygon class="cls-1" points="646.07718 189.39473 649.49676 182.03598 652.81352 189.39473 657.69501 189.39473 651.37367 175.658 650.04526 175.658 643.57197 189.39473 646.07718 189.39473"/><polygon class="cls-1" points="641.64323 193.48766 634.88706 207.82469 637.51291 207.82469 644.17524 193.48766 641.64323 193.48766"/><polygon class="cls-1" points="659.57847 193.48766 654.65828 193.48766 661.12031 207.82469 666.17604 207.82469 659.57847 193.48766"/><polygon class="cls-1" points="584.14624 189.39473 584.14624 178.40972 600.72774 178.40972 600.72774 176.36965 578.85629 176.36965 578.85629 189.39473 584.14624 189.39473"/><polygon class="cls-1" points="584.14624 193.48766 578.85629 193.48766 578.85629 207.82469 600.72774 207.82469 600.72774 205.78462 584.14624 205.78462 584.14624 193.48766"/><path class="cls-1" d="M434.07618,215.69583l14.80237,32.16669h-5.38484l-4.79179-10.48501h-13.49767l-4.95785,10.48501h-2.65684l15.1582-32.16669h1.32842ZM426.1294,235.33743h11.59993l-5.71694-12.45392-5.88299,12.45392Z"/><path class="cls-1" d="M454.91711,216.40748h5.28995v29.41497h15.84613v2.04007h-21.13608v-31.45504Z"/><path class="cls-1" d="M481.9599,216.40748l10.912,15.94101,10.86456-15.94101h2.87033l-12.19298,17.86248v13.59256h-5.28995v-13.0944l-12.57253-18.36063h5.40856Z"/><path class="cls-1" d="M523.30691,215.69583l14.80237,32.16669h-5.38484l-4.79179-10.48501h-13.49767l-4.95785,10.48501h-2.65684l15.1582-32.16669h1.32842ZM515.36012,235.33743h11.59993l-5.71694-12.45392-5.88299,12.45392Z"/><path class="cls-1" d="M578.77971,216.40748h5.28995v31.45504h-5.28995v-31.45504Z"/><path class="cls-1" d="M604.9448,215.69583l14.80237,32.16669h-5.38484l-4.79179-10.48501h-13.49767l-4.95785,10.48501h-2.65684l15.1582-32.16669h1.32842ZM596.99801,235.33743h11.59993l-5.71694-12.45392-5.88299,12.45392Z"/><rect class="cls-1" x="561.07513" y="179.99685" width="13.22395" height="5.28995" transform="translate(384.28345 750.08326) rotate(-89.92309)"/><rect class="cls-1" x="539.98651" y="179.96854" width="13.22395" height="5.28995" transform="translate(363.25144 728.96639) rotate(-89.92309)"/><rect class="cls-1" x="540.4486" y="218.04426" width="54.37486" height="5.28995" transform="translate(346.18507 788.02853) rotate(-89.92309)"/><rect class="cls-1" x="519.35999" y="218.01595" width="54.37486" height="5.28995" transform="translate(325.15307 766.91166) rotate(-89.92309)"/><polygon class="cls-1" points="646.07718 189.39473 649.49676 182.03598 652.81352 189.39473 657.69501 189.39473 651.37367 175.658 650.04526 175.658 643.57197 189.39473 646.07718 189.39473"/><polygon class="cls-1" points="641.64323 193.48766 634.88706 207.82469 637.51291 207.82469 644.17524 193.48766 641.64323 193.48766"/><polygon class="cls-1" points="659.57847 193.48766 654.65828 193.48766 661.12031 207.82469 666.17604 207.82469 659.57847 193.48766"/><path class="cls-4" d="M556.1362,1333.73614c0,.05859-.01465.10938-.04395.15332-.0293.04297-.08008.07812-.15283.10352-.07324.02539-.16943.04688-.29004.06543-.12012.01855-.26758.02734-.44238.02734-.18994,0-.34277-.00879-.45947-.02734s-.21143-.04004-.28418-.06543-.12402-.06055-.15283-.10352c-.0293-.04395-.04395-.09473-.04395-.15332v-6.27539h-6.43848v6.27539c0,.05859-.01465.10938-.04395.15332-.0293.04297-.08008.07812-.15283.10352-.07324.02539-.16943.04688-.29004.06543-.12012.01855-.27148.02734-.45361.02734-.1748,0-.32422-.00879-.44824-.02734s-.22217-.04004-.29492-.06543c-.07324-.02539-.12402-.06055-.15332-.10352-.02881-.04395-.04346-.09473-.04346-.15332v-13.57715c0-.05859.01465-.10938.04346-.15332.0293-.04395.08008-.07812.15332-.10352.07275-.02539.1709-.04785.29492-.06543.12402-.01855.27344-.02734.44824-.02734.18213,0,.3335.00879.45361.02734.12061.01758.2168.04004.29004.06543.07275.02539.12354.05957.15283.10352s.04395.09473.04395.15332v5.66211h6.43848v-5.66211c0-.05859.01465-.10938.04395-.15332.02881-.04395.08008-.07812.15283-.10352s.16748-.04785.28418-.06543c.1167-.01855.26953-.02734.45947-.02734.1748,0,.32227.00879.44238.02734.12061.01758.2168.04004.29004.06543.07275.02539.12354.05957.15283.10352s.04395.09473.04395.15332v13.57715Z"/><path class="cls-4" d="M568.08493,1328.40118c0,.28418-.07178.48633-.21436.60645-.14258.12109-.30566.18066-.48877.18066h-6.479c0,.54688.05469,1.03906.16455,1.47559.10986.4375.29297.81348.54932,1.12598.25586.31348.58936.55469.99951.72168.41016.16797.91162.25195,1.50488.25195.46875,0,.88623-.03906,1.25244-.11523s.68262-.16211.9502-.25684c.26709-.09473.48682-.18066.65918-.25684.17188-.07617.30176-.11523.39014-.11523.05127,0,.09668.01367.13721.03906.04004.02539.07129.06348.09326.11426s.03857.12207.04932.21289c.01074.0918.0166.20312.0166.33398,0,.09473-.00391.17676-.01074.24609-.00781.06934-.0166.13086-.02734.18555-.01123.05469-.0293.10352-.05469.14746-.02588.04395-.05859.08594-.09863.12598s-.15869.10547-.35547.19629c-.19678.0918-.45166.18066-.76514.26855-.31348.08691-.67578.16504-1.0874.23438-.41211.06934-.85107.10449-1.31738.10449-.80908,0-1.51807-.11328-2.12646-.33887-.6084-.22656-1.12012-.56152-1.53564-1.00586s-.729-1.00195-.94043-1.67285c-.21143-.66992-.31689-1.4502-.31689-2.33887,0-.8457.10938-1.60547.32812-2.2793.21875-.6748.53369-1.24707.94531-1.7168s.90918-.83105,1.49219-1.08203c.58301-.25195,1.23535-.37695,1.95703-.37695.77246,0,1.43018.12402,1.97314.37109.54297.24805.98926.58105,1.33936,1.00098.34961.41895.60645.91016.77051,1.47559.16406.56445.24609,1.16797.24609,1.80859v.32812ZM566.26999,1327.86603c.02197-.94727-.18896-1.69141-.63232-2.23047-.44385-.53906-1.10205-.80859-1.97412-.80859-.44775,0-.83984.08398-1.17725.25098-.3374.16797-.61963.38965-.84668.66699-.22754.27734-.40332.59961-.52832.96777-.12451.36816-.19385.75195-.2085,1.15332h5.36719Z"/><path class="cls-4" d="M578.2402,1333.75763c0,.08789-.0293.15332-.0874.19727-.05859.04395-.13867.07617-.24072.09863-.10205.02148-.25146.03223-.44824.03223-.18945,0-.34082-.01074-.45361-.03223-.11328-.02246-.19482-.05469-.24609-.09863-.05078-.04395-.07617-.10938-.07617-.19727v-.9834c-.43018.45898-.90967.81641-1.4375,1.07129-.52881.25488-1.08789.38281-1.67822.38281-.51758,0-.98584-.06738-1.40479-.20215s-.77637-.33008-1.07129-.58496c-.29541-.25488-.5249-.56836-.68896-.94043-.16357-.37207-.24561-.79395-.24561-1.26855,0-.55371.11279-1.03418.33887-1.44238.22559-.4082.55029-.74707.97266-1.0166.42285-.26953.94043-.47168,1.55225-.60645.6123-.13477,1.30127-.20312,2.06641-.20312h1.35547v-.76465c0-.37891-.04004-.71387-.12012-1.00586-.08057-.29102-.20947-.53418-.38818-.72656-.17871-.19336-.41016-.33887-.69434-.4375s-.63379-.14746-1.04932-.14746c-.44482,0-.84375.05273-1.19678.1582-.354.10547-.66357.22266-.92969.34961-.26611.12793-.48828.24414-.6665.34961-.17871.10645-.31152.15918-.39893.15918-.05859,0-.10938-.01465-.15332-.04395-.04346-.0293-.08203-.07324-.11475-.13086-.03271-.05859-.05664-.13281-.0708-.22461-.01465-.09082-.02197-.19141-.02197-.30078,0-.18164.0127-.32617.03809-.43164s.0874-.20605.18604-.30078c.09814-.09473.26758-.20508.5083-.33301.24023-.12793.51709-.24414.83057-.34961s.65625-.19336,1.02783-.2627.74707-.10352,1.12598-.10352c.70654,0,1.30811.08008,1.80371.24023s.89648.39551,1.20264.70508.52832.69434.6665,1.15332c.13867.45898.20801.99512.20801,1.60645v6.63574ZM576.44723,1329.26544h-1.5415c-.49561,0-.92529.04199-1.29004.125-.36426.08398-.6665.20801-.90723.37207-.24023.16406-.41699.36035-.53027.58984-.11279.22949-.16943.49414-.16943.79297,0,.50977.16211.91602.48682,1.21875.32422.30273.77783.4541,1.36084.4541.47363,0,.9126-.12012,1.31738-.36133.4043-.24023.82861-.6084,1.27344-1.10352v-2.08789Z"/><path class="cls-4" d="M583.35593,1333.74689c0,.05859-.01465.10742-.04346.14746-.0293.04004-.07666.0752-.14209.10449-.06543.02832-.15674.05078-.27344.06543s-.26611.02148-.44824.02148c-.1748,0-.3208-.00684-.43701-.02148-.1167-.01465-.20996-.03711-.27881-.06543-.06934-.0293-.1167-.06445-.14209-.10449-.02588-.04004-.03857-.08887-.03857-.14746v-14.60449c0-.05859.0127-.10938.03857-.15332.02539-.04395.07275-.08008.14209-.10938.06885-.0293.16211-.05078.27881-.06543.11621-.01465.26221-.02148.43701-.02148.18213,0,.33154.00684.44824.02148s.20801.03613.27344.06543.11279.06543.14209.10938c.02881.04395.04346.09473.04346.15332v14.60449Z"/><path class="cls-4" d="M591.17282,1334.02032l-1.31201,3.61816c-.04395.11719-.15479.20605-.3335.26855-.17871.06152-.4502.09277-.81445.09277-.18945,0-.34229-.00977-.45898-.02734-.1167-.01855-.20605-.0498-.26807-.09277-.06201-.04395-.09668-.10254-.10352-.17578-.00732-.07227.01074-.16016.05469-.26172l1.35547-3.42188c-.06543-.0293-.12744-.07617-.18604-.14258-.05811-.06543-.09814-.13477-.12012-.20703l-3.50928-9.40137c-.05811-.15332-.0874-.27344-.0874-.36133,0-.08691.0293-.15625.0874-.20703.05859-.05078.15332-.08594.28418-.10449.13135-.01758.30615-.02734.5249-.02734s.38965.00586.51367.0166.22217.03125.29541.06055c.07275.0293.12549.07031.1582.125.0332.05469.06738.12988.104.22461l2.80957,7.89258h.03271l2.71094-7.93652c.04395-.13867.09668-.22754.15869-.26758s.15479-.06934.27881-.08789c.12402-.01758.30225-.02734.53564-.02734.2041,0,.37158.00977.50293.02734.13086.01855.22754.05371.28955.10449s.09277.12012.09277.20703c0,.08789-.02148.19727-.06543.32812l-3.53076,9.78418Z"/><path class="cls-4" d="M603.89743,1333.75763c0,.08789-.0293.15332-.0874.19727-.05859.04395-.13867.07617-.24072.09863-.10205.02148-.25146.03223-.44824.03223-.18945,0-.34082-.01074-.45361-.03223-.11328-.02246-.19482-.05469-.24609-.09863-.05078-.04395-.07617-.10938-.07617-.19727v-.9834c-.43018.45898-.90967.81641-1.4375,1.07129-.52881.25488-1.08789.38281-1.67822.38281-.51758,0-.98584-.06738-1.40479-.20215s-.77637-.33008-1.07129-.58496c-.29541-.25488-.5249-.56836-.68896-.94043-.16357-.37207-.24561-.79395-.24561-1.26855,0-.55371.11279-1.03418.33887-1.44238.22559-.4082.55029-.74707.97266-1.0166.42285-.26953.94043-.47168,1.55225-.60645.6123-.13477,1.30127-.20312,2.06641-.20312h1.35547v-.76465c0-.37891-.04004-.71387-.12012-1.00586-.08057-.29102-.20947-.53418-.38818-.72656-.17871-.19336-.41016-.33887-.69434-.4375s-.63379-.14746-1.04932-.14746c-.44482,0-.84375.05273-1.19678.1582-.354.10547-.66357.22266-.92969.34961-.26611.12793-.48828.24414-.6665.34961-.17871.10645-.31152.15918-.39893.15918-.05859,0-.10938-.01465-.15332-.04395-.04346-.0293-.08203-.07324-.11475-.13086-.03271-.05859-.05664-.13281-.0708-.22461-.01465-.09082-.02197-.19141-.02197-.30078,0-.18164.0127-.32617.03809-.43164s.0874-.20605.18604-.30078c.09814-.09473.26758-.20508.5083-.33301.24023-.12793.51709-.24414.83057-.34961s.65625-.19336,1.02783-.2627.74707-.10352,1.12598-.10352c.70654,0,1.30811.08008,1.80371.24023s.89648.39551,1.20264.70508.52832.69434.6665,1.15332c.13867.45898.20801.99512.20801,1.60645v6.63574ZM602.10446,1329.26544h-1.5415c-.49561,0-.92529.04199-1.29004.125-.36426.08398-.6665.20801-.90723.37207-.24023.16406-.41699.36035-.53027.58984-.11279.22949-.16943.49414-.16943.79297,0,.50977.16211.91602.48682,1.21875.32422.30273.77783.4541,1.36084.4541.47363,0,.9126-.12012,1.31738-.36133.4043-.24023.82861-.6084,1.27344-1.10352v-2.08789Z"/><path class="cls-4" d="M615.68161,1333.74689c0,.05859-.01465.10742-.04346.14746-.0293.04004-.07666.0752-.14209.10449-.06592.02832-.15674.05078-.27344.06543s-.26221.02148-.43701.02148c-.18262,0-.33203-.00684-.44824-.02148-.1167-.01465-.20801-.03711-.27344-.06543-.06543-.0293-.11328-.06445-.14209-.10449-.0293-.04004-.04395-.08887-.04395-.14746v-5.76074c0-.56152-.04346-1.0127-.13086-1.35547s-.21533-.6377-.38281-.88574-.38428-.4375-.65039-.56836-.57373-.19727-.92383-.19727c-.45166,0-.90381.16113-1.35547.48145-.45215.32031-.92578.79102-1.42139,1.41016v6.87598c0,.05859-.01465.10742-.04346.14746-.0293.04004-.07666.0752-.14209.10449-.06543.02832-.15674.05078-.27344.06543s-.26611.02148-.44824.02148c-.1748,0-.3208-.00684-.43701-.02148-.1167-.01465-.20996-.03711-.27881-.06543-.06934-.0293-.1167-.06445-.14209-.10449-.02588-.04004-.03857-.08887-.03857-.14746v-14.60449c0-.05859.0127-.10938.03857-.15332.02539-.04395.07275-.08008.14209-.10938.06885-.0293.16211-.05078.27881-.06543.11621-.01465.26221-.02148.43701-.02148.18213,0,.33154.00684.44824.02148s.20801.03613.27344.06543.11279.06543.14209.10938c.02881.04395.04346.09473.04346.15332v5.8916c.51758-.5459,1.03857-.95215,1.56348-1.21875.5249-.26562,1.05322-.39844,1.58496-.39844.65625,0,1.20801.11133,1.65625.33301.44824.22266.81055.51953,1.08789.89062.27686.37207.47559.80762.5957,1.30664s.18018,1.10254.18018,1.80957v5.99023Z"/><path class="cls-4" d="M620.98337,1320.58478c0,.42285-.08057.71094-.24072.86426-.16016.15234-.45557.22949-.88525.22949-.42285,0-.7124-.0752-.86914-.22461s-.23486-.43164-.23486-.84668c0-.42285.08008-.71094.24023-.86426.16016-.15234.45557-.22949.88574-.22949.42236,0,.71191.0752.86914.22461.15625.14941.23486.43164.23486.84668ZM620.77536,1333.74689c0,.05859-.01465.10742-.04346.14746-.0293.04004-.07666.0752-.14209.10449-.06543.02832-.15674.05078-.27344.06543s-.26611.02148-.44824.02148c-.1748,0-.3208-.00684-.43701-.02148-.1167-.01465-.20996-.03711-.27881-.06543-.06934-.0293-.1167-.06445-.14209-.10449-.02588-.04004-.03857-.08887-.03857-.14746v-9.83887c0-.05078.0127-.09766.03857-.1416.02539-.04395.07275-.08008.14209-.10938.06885-.0293.16211-.05078.27881-.06543.11621-.01465.26221-.02246.43701-.02246.18213,0,.33154.00781.44824.02246s.20801.03613.27344.06543.11279.06543.14209.10938c.02881.04395.04346.09082.04346.1416v9.83887Z"/><path class="cls-4" d="M631.52194,1333.75763c0,.08789-.0293.15332-.0874.19727-.05859.04395-.13867.07617-.24072.09863-.10205.02148-.25146.03223-.44824.03223-.18945,0-.34082-.01074-.45361-.03223-.11328-.02246-.19482-.05469-.24609-.09863-.05078-.04395-.07617-.10938-.07617-.19727v-.9834c-.43018.45898-.90967.81641-1.4375,1.07129-.52881.25488-1.08789.38281-1.67822.38281-.51758,0-.98584-.06738-1.40479-.20215s-.77637-.33008-1.07129-.58496c-.29541-.25488-.5249-.56836-.68896-.94043-.16357-.37207-.24561-.79395-.24561-1.26855,0-.55371.11279-1.03418.33887-1.44238.22559-.4082.55029-.74707.97266-1.0166.42285-.26953.94043-.47168,1.55225-.60645.6123-.13477,1.30127-.20312,2.06641-.20312h1.35547v-.76465c0-.37891-.04004-.71387-.12012-1.00586-.08057-.29102-.20947-.53418-.38818-.72656-.17871-.19336-.41016-.33887-.69434-.4375s-.63379-.14746-1.04932-.14746c-.44482,0-.84375.05273-1.19678.1582-.354.10547-.66357.22266-.92969.34961-.26611.12793-.48828.24414-.6665.34961-.17871.10645-.31152.15918-.39893.15918-.05859,0-.10938-.01465-.15332-.04395-.04346-.0293-.08203-.07324-.11475-.13086-.03271-.05859-.05664-.13281-.0708-.22461-.01465-.09082-.02197-.19141-.02197-.30078,0-.18164.0127-.32617.03809-.43164s.0874-.20605.18604-.30078c.09814-.09473.26758-.20508.5083-.33301.24023-.12793.51709-.24414.83057-.34961s.65625-.19336,1.02783-.2627.74707-.10352,1.12598-.10352c.70654,0,1.30811.08008,1.80371.24023s.89648.39551,1.20264.70508.52832.69434.6665,1.15332c.13867.45898.20801.99512.20801,1.60645v6.63574ZM629.72897,1329.26544h-1.5415c-.49561,0-.92529.04199-1.29004.125-.36426.08398-.6665.20801-.90723.37207-.24023.16406-.41699.36035-.53027.58984-.11279.22949-.16943.49414-.16943.79297,0,.50977.16211.91602.48682,1.21875.32422.30273.77783.4541,1.36084.4541.47363,0,.9126-.12012,1.31738-.36133.4043-.24023.82861-.6084,1.27344-1.10352v-2.08789Z"/><path class="cls-3" d="M485.79577,1336.05646h-2.55948c-.23474,0-.42442-.18969-.42442-.42441s.18968-.42442.42442-.42442h2.55948c2.01119,0,3.64822-1.63616,3.64822-3.64736v-8.99324c0-2.0112-1.63702-3.64736-3.64822-3.64736h-8.99238c-2.01207,0-3.64823,1.63616-3.64823,3.64736v8.99324c0,2.0112,1.63617,3.64736,3.64823,3.64736h2.58719c.23386,0,.42441.18969.42441.42442s-.19054.42441-.42441.42441h-2.58719c-2.4798,0-4.49706-2.01726-4.49706-4.49619v-8.99324c0-2.47892,2.01726-4.49619,4.49706-4.49619h8.99238c2.47892,0,4.49618,2.01727,4.49618,4.49619v8.99324c0,2.47892-2.01726,4.49619-4.49618,4.49619"/><path class="cls-3" d="M481.2995,1336.05646c-.11174,0-.22087-.04504-.2997-.12386-.07968-.07969-.12472-.18882-.12472-.30055s.04504-.22087.12472-.29969c.07882-.07969.18795-.12473.2997-.12473.11173,0,.22086.04504.29968.12473.07968.07882.12472.18795.12472.29969s-.04504.22087-.12472.30055c-.07882.07882-.18795.12386-.29968.12386"/><path class="cls-3" d="M477.57167,1323.54066c-.1126,0-.22521-.04417-.30835-.13339-.16111-.16976-.15331-.43827.01731-.59937l.01906-.01733c.17064-.16024.43914-.15157.59938.01906.16024.1715.15071.44-.01992.59938l-.01645.01645c-.08229.07622-.18709.11519-.29103.11519"/><path class="cls-3" d="M481.2995,1324.09431c-1.63704,0-2.97003,1.33301-2.97003,2.97003s1.33299,2.9683,2.97003,2.9683,2.97002-1.33127,2.97002-2.9683-1.33299-2.97003-2.97002-2.97003M481.2995,1330.88146c-2.10475,0-3.81714-1.71238-3.81714-3.81713,0-2.10561,1.71238-3.81799,3.81714-3.81799s3.81713,1.71238,3.81713,3.81799c0,2.10475-1.71238,3.81713-3.81713,3.81713"/><path class="cls-3" d="M487.00873,1320.55112c-.38391,0-.69671.26863-.69671.59915s.3128.59914.69671.59914.6967-.26863.6967-.59914-.3128-.59915-.6967-.59915M487.00873,1322.41588c-.81046,0-1.47004-.56786-1.47004-1.26561s.65959-1.26562,1.47004-1.26562,1.47003.56786,1.47003,1.26562-.65959,1.26561-1.47003,1.26561"/><path class="cls-4" d="M458.68349,1325.75954l6.34347-7.70308h-1.60151l-5.48328,6.65835-4.72319-6.65835h-4.74092l6.90963,9.76127-6.90963,8.38914h1.60151l6.0484-7.34337,5.1976,7.34337h4.76907l-7.41114-10.44733ZM450.54146,1319.12413h2.12596l11.36069,16.01507h-2.14994l-11.33671-16.01507Z"/><path class="cls-4" d="M502.5138,1336.2839c-4.7153-.3816-7.10927-6.19543-3.95922-9.79785,1.48858-1.70234,3.72419-2.41773,5.94761-1.95172v4.12139c-.94811-.33246-1.83617-.56368-2.67571.16226-1.28806,1.11375-.70852,3.23389.96286,3.52092,1.10988.1906,2.26714-.59855,2.36491-1.74771.09775-1.14901-.0128-2.54499-.0028-3.72651.00072-.08541.03847-.16468.03913-.25009.02298-2.94648-.0203-5.89463-.00149-8.84078h3.94063c-.13674,1.56594.5774,3.07537,1.95156,3.85092.82046.46305,1.67355.52986,2.60366.52353v3.90447c-1.59297.09064-3.17913-.19489-4.55486-1.01226-.01508,1.69289.0198,3.38784-.00232,5.08104-.00865.66189-.01167,1.13917-.18908,1.79574-.62319,2.30642-2.79313,4.17183-5.1957,4.36665-.33389.02707-.89526.02702-1.22919,0ZM508.04513,1318.85839h-1.77147v11.83995c0,.37194-.3199,1.10652-.5339,1.41834-1.2962,1.88867-4.16661,1.78424-5.31578-.19618-1.27314-2.19408.47213-4.8688,2.95748-4.71087v-1.69917c-2.26571-.11999-4.41729,1.39921-4.98635,3.59987-.98582,3.81234,2.66797,7.04035,6.35188,5.80959,1.90364-.63599,3.21903-2.43204,3.29964-4.437l-.03746-7.57527c.02532-.02875.14502.07112.17695.09382.29955.21293.57354.46824.87523.67932,1.03627.72502,2.25762,1.22451,3.53899,1.25122v-1.69917c-2.34096-.18785-4.28676-2.03633-4.55522-4.37446Z"/><path class="cls-4" d="M518.69289,1330.84653c.13011-.89612,1.1446-1.00025,1.80518-1.29162.9582-.42264,1.53022-1.20638,1.82938-2.19411-.7626-.27974-1.58838-.48426-1.85561-1.35294-.39417-1.2813.77116-2.31127,2.00376-1.87428.04866-.77504.00028-1.53744.16604-2.30035.4308-1.98272,2.01501-3.67254,3.95959-4.23672,3.13787-.91039,6.4398,1.07023,7.12381,4.24455.1655.76805.13281,1.51251.17387,2.29251,1.2326-.43699,2.39793.59298,2.00376,1.87428-.26723.86868-1.09301,1.07319-1.85561,1.35294.29918.98786.87132,1.77153,1.82938,2.19411.7132.31458,1.80916.4199,1.80848,1.4585-.00078,1.1852-1.425,1.53161-2.35343,1.68399-.13376.79085-.55453,1.42052-1.41291,1.48833-1.06487.08412-1.55425-.27746-2.61679.27602-1.23847.64512-1.97282,1.29378-3.50338,1.16847-1.26808-.10382-2.05256-.94268-3.12127-1.3663-.98924-.39212-2.24256.31825-3.10879-.4516-.32207-.28623-.4327-.69454-.51035-1.10269-.87787-.17604-2.21734-.444-2.36512-1.52932-.01033-.07583-.01089-.25876,0-.33379ZM534.81409,1325.14712c-.37982-.32099-1.16954.32753-1.65456.00393-.17078-.11394-.24202-.27979-.26175-.48-.10192-1.03413.05312-2.0495-.28-3.05786-1.21608-3.68105-6.12114-4.39458-8.30276-1.14774-.85964,1.27938-.7492,2.3054-.83747,3.76136-.02159.35609.07922.71435-.28477.93911-.51045.31519-1.54083-.5208-1.76806.19754-.24744.78221,1.19598.94098,1.65767,1.22337.517.31622.29186.88202.1264,1.33958-.40979,1.13324-1.16569,2.05244-2.2774,2.54396-.19876.08788-1.13824.37499-1.20215.47726-.16797.26879.42185.48931.59689.54652.32718.10694,1.4203.2445,1.59183.3738.2827.21309-.09306,1.23999.65103,1.31447.42075.04212,1.00623-.08159,1.44747-.07509,1.30652.01925,2.1734,1.04395,3.35503,1.39214,2.16506.63796,3.12926-1.3809,5.02388-1.39284.42743-.00269,1.00172.11667,1.41015.07579.74408-.07448.36833-1.10138.65103-1.31447.16838-.12692,1.22238-.25946,1.53536-.3561.22348-.069,1.018-.39723.53692-.64192-.74649-.37967-1.35724-.39851-2.07424-1.00579-.61007-.51671-1.4009-1.79866-1.48309-2.59619-.09444-.91642,1.2555-.87356,1.78097-1.29768.23931-.19315.31635-.60789.06163-.82316Z"/></svg>