<?xml version="1.0" encoding="UTF-8"?><svg id="Layer_1" xmlns="http://www.w3.org/2000/svg" viewBox="0 0 1080 705.31915"><defs><style>.cls-1{fill:#403f3f;}</style></defs><path class="cls-1" d="M583.23228,338.45879v-38.36966h15.31199c5.5469,0,10.30462.4993,14.27177,1.49791,3.96577.99861,7.23991,2.44197,9.81964,4.3273,2.57974,1.88626,4.4794,4.14792,5.70039,6.78221,1.2196,2.63522,1.83078,5.56262,1.83078,8.77943,0,2.99582-.51364,5.7836-1.53952,8.36334-1.02727,2.57974-2.53813,4.79887-4.53534,6.65739-.77427.72087-1.63597,1.36245-2.54373,1.96208h19.56098c1.48034-1.24456,2.75715-2.53327,3.78708-3.87608,1.55247-2.02495,2.63429-4.23021,3.24548-6.61578.6098-2.38464.91539-5.104.91539-8.1553,0-3.99443-.97133-7.65599-2.91261-10.98469-1.94266-3.32869-4.6745-6.18582-8.19691-8.57138-3.52379-2.38464-7.73921-4.23021-12.64903-5.53395-4.90982-1.30281-10.306-1.95561-16.18577-1.95561h-44.43805v45.69278h18.55746Z"/><path class="cls-1" d="M647.68409,355.05417c-.78114-.80004-1.63805-1.53397-2.52986-2.23716h-23.16187c2.18116,1.01132,4.05985,2.20052,5.63636,3.56864,2.5238,2.19231,4.34025,4.785,5.45073,7.78082,1.1091,2.99582,1.66435,6.2413,1.66435,9.73643,0,3.1077-.62413,5.96391-1.87239,8.57138-1.24826,2.6084-3.16226,4.84047-5.742,6.69899-2.57974,1.85944-5.85388,3.30095-9.81964,4.3273-3.96715,1.02727-8.64166,1.53952-14.02212,1.53952h-20.05537v-42.22308h-18.55746v50.29516h51.51152c5.87977,0,11.19273-.7767,15.93612-2.33009,4.74339-1.55247,8.79237-3.67451,12.14973-6.36613,3.35597-2.69069,5.93571-5.85295,7.73921-9.48677,1.80212-3.6329,2.70456-7.53117,2.70456-11.69203,0-3.66156-.61119-7.03186-1.83078-10.1109-1.22098-3.07904-2.95421-5.76973-5.20108-8.07208Z"/><polygon class="cls-1" points="701.96045 338.45879 713.95652 312.64385 725.59192 338.45879 742.71649 338.45879 720.54086 290.26949 715.88069 290.26949 693.17201 338.45879 701.96045 338.45879"/><polygon class="cls-1" points="686.40587 352.81702 662.70482 403.11218 671.91646 403.11218 695.28833 352.81702 686.40587 352.81702"/><polygon class="cls-1" points="749.32377 352.81702 732.06345 352.81702 754.73266 403.11218 772.46847 403.11218 749.32377 352.81702"/><rect class="cls-1" x="403.76809" y="305.49044" width="46.39042" height="18.55746" transform="translate(111.62131 741.30959) rotate(-89.92309)"/><rect class="cls-1" x="329.78796" y="305.39114" width="46.39042" height="18.55746" transform="translate(37.83978 667.23035) rotate(-89.92309)"/><polygon class="cls-1" points="417.63344 352.85427 417.3774 403.14938 435.93485 403.17428 436.19089 352.87918 417.63344 352.85427"/><polygon class="cls-1" points="343.65331 352.75497 343.39727 403.05007 361.95472 403.07498 362.21076 352.77988 343.65331 352.75497"/><rect x="802.19348" y="352.65961" width="18.55566" height="49.54761"/><polygon points="802.19348 338.45881 820.74914 338.45881 820.74914 299.02558 860.69055 299.02558 860.69055 291.86933 762.25207 291.86933 762.25207 299.02558 802.19348 299.02558 802.19348 338.45881"/><rect x="493.03576" y="292.6037" width="18.69141" height="45.8551"/><rect x="493.03576" y="352.65961" width="18.69141" height="51.08472"/><path d="M350.7314,107.67024c5.66754.0476,9.56061-3.79999,15.33993-3.34308,8.63511.68269,14.99555,9.52452,8.38906,16.7464-4.36253,4.7689-11.54429,5.64508-17.02556,8.08678-8.79422,3.91749-4.97906,9.16477-1.21893,15.71398,5.13239,8.93935,14.54301,19.02982,23.88071,23.55371,4.94272,2.39463,10.38527,3.22809,15.47227,5.17563,8.0234,9.67457-5.22637,15.22502-13.03009,17.49208-2.15648.62648-11.52275,2.25689-12.26953,2.79787-1.49806,1.08521-1.53196,8.95014-4.18056,11.44491-3.98362,3.75225-13.82756.15689-18.95938-.03231-21.73032-.80116-31.63024,21.37678-56.87521,19.48176-16.2982-1.22343-22.62988-10.31079-35.32622-16.57318-11.89932-5.86927-18.26708-.78586-28.98408-.71631-8.22987.05341-7.27031-8.11928-9.70963-13.60493-7.52435-1.57694-28.61315-4.93215-27.87536-15.56514.44343-6.39067,6.82738-5.7126,11.26225-7.19916,13.24172-4.43861,24.03991-14.54519,30.86023-26.61913,1.73698-3.07496,5.42376-9.01926,3.30446-12.25809-2.40709-3.67865-15.91291-5.78915-20.90547-10.34162-7.88338-7.18847-1.70438-16.7942,7.61732-17.54371,5.08197-.40862,9.9152,4.15065,15.27728,3.30422.05811-14.70535-2.93499-31.73463,2.51875-45.7529,17.93624-46.10329,91.66379-46.15368,109.91663-.00056,5.67199,14.34189,2.70549,30.75356,2.52112,45.75279Z"/></svg>