<?xml version="1.0" encoding="UTF-8"?><svg id="Layer_1" xmlns="http://www.w3.org/2000/svg" xmlns:xlink="http://www.w3.org/1999/xlink" viewBox="0 0 92.92207 48.28543"><defs><style>.cls-1{fill:#403f3f;}.cls-2{clip-path:url(#clippath-1);}.cls-3{clip-path:url(#clippath-3);}.cls-4{clip-path:url(#clippath-4);}.cls-5{clip-path:url(#clippath-2);}.cls-6{clip-path:url(#clippath-6);}.cls-7{clip-path:url(#clippath-5);}.cls-8{clip-path:url(#clippath);}</style><clipPath id="clippath"><polygon class="cls-1" points="27.20855 7.01117 25.62393 7.76266 25.62393 13.4787 27.20884 13.4787 27.20969 9.36914 28.9847 10.77004 28.98725 17.34675 30.81607 16.48196 30.81607 9.86436 27.20898 7.01117 27.20855 7.01117"/></clipPath><clipPath id="clippath-1"><polygon class="cls-1" points="16.97463 24.51423 19.97136 26.87802 19.97221 24.53056 16.97789 22.16648 16.97463 24.51423"/></clipPath><clipPath id="clippath-2"><path class="cls-1" d="M12.12366,26.47707l3.01859-1.41509v9.41571l-3.01859,1.41552v-9.41614ZM10.29214,25.29781v13.49218l4.85012-2.27406v6.0663l1.83195-.85826.00198-19.55748-6.68405,3.13133Z"/></clipPath><clipPath id="clippath-3"><polygon class="cls-1" points="16.9742 33.61957 16.9742 35.65681 16.9742 35.65696 19.97136 34.25322 19.97136 32.21498 16.9742 33.61957"/></clipPath><clipPath id="clippath-4"><polygon class="cls-1" points="33.05053 16.98513 34.79927 18.3653 34.80126 23.36591 32.42455 21.48953 31.41763 23.04404 36.63263 27.15758 36.63277 27.15729 36.63192 17.46061 33.05053 14.63113 33.05053 16.98513"/></clipPath><clipPath id="clippath-5"><path class="cls-1" d="M21.79592,11.59181l3.58665-1.67903v8.31154l-1.05503.49564.00071,11.45352-2.52536,1.18339-.00696-19.76506ZM27.20855,7.01117l-7.2379,3.39882.00071,23.84323,12.6308-5.91594-.01008-2.03697-6.43147,3.01463.00241-9.41699,5.054-2.36848v5.35726l1.83109,1.44505.00327-9.70066-5.84254,2.73123V7.01117h-.00029Z"/></clipPath><clipPath id="clippath-6"><polygon class="cls-1" points="32.60216 28.33728 36.63277 31.51403 36.63277 31.51389 36.63277 31.51375 36.63277 29.48645 32.59208 26.30031 32.60216 28.33728"/></clipPath></defs><polygon class="cls-1" points="27.20855 7.01117 25.62393 7.76266 25.62393 13.4787 27.20884 13.4787 27.20969 9.36914 28.9847 10.77004 28.98725 17.34675 30.81607 16.48196 30.81607 9.86436 27.20898 7.01117 27.20855 7.01117"/><g class="cls-8"><rect class="cls-1" x="24.29975" y="6.49572" width="7.84048" height="11.36649" transform="translate(-2.26406 8.25241) rotate(-16.00402)"/></g><polygon class="cls-1" points="16.97463 24.51423 19.97136 26.87802 19.97221 24.53056 16.97789 22.16648 16.97463 24.51423"/><g class="cls-2"><rect class="cls-1" x="16.38321" y="21.84456" width="4.18039" height="5.35539" transform="translate(-6.04494 6.04366) rotate(-16.00408)"/></g><path class="cls-1" d="M12.12366,26.47707l3.01859-1.41509v9.41571l-3.01859,1.41552v-9.41614ZM10.29214,25.29781v13.49218l4.85012-2.27406v6.0663l1.83195-.85826.00198-19.55748-6.68405,3.13133Z"/><g class="cls-5"><rect class="cls-1" x="3.17853" y="24.20751" width="20.91124" height="16.33369" transform="translate(-21.10562 27.16504) rotate(-58.63397)"/></g><polygon class="cls-1" points="16.9742 33.61957 16.9742 35.65681 16.9742 35.65696 19.97136 34.25322 19.97136 32.21498 16.9742 33.61957"/><g class="cls-3"><rect class="cls-1" x="16.22328" y="31.76061" width="4.49899" height="4.35072" transform="translate(-20.11891 32.0453) rotate(-58.63391)"/></g><polygon class="cls-1" points="33.05053 16.98513 34.79927 18.3653 34.80126 23.36591 32.42455 21.48953 31.41763 23.04404 36.63263 27.15758 36.63277 27.15729 36.63192 17.46061 33.05053 14.63113 33.05053 16.98513"/><g class="cls-4"><rect class="cls-1" x="27.27115" y="16.55261" width="13.50809" height="8.68349" transform="translate(4.01028 47.22672) rotate(-72.81424)"/></g><path class="cls-1" d="M21.79592,11.59181l3.58665-1.67903v8.31154l-1.05503.49564.00071,11.45352-2.52536,1.18339-.00696-19.76506ZM27.20855,7.01117l-7.2379,3.39882.00071,23.84323,12.6308-5.91594-.01008-2.03697-6.43147,3.01463.00241-9.41699,5.054-2.36848v5.35726l1.83109,1.44505.00327-9.70066-5.84254,2.73123V7.01117h-.00029Z"/><g class="cls-7"><rect class="cls-1" x="11.47628" y="7.95785" width="30.06945" height="25.34869" transform="translate(-4.90506 32.52974) rotate(-58.63396)"/></g><polygon class="cls-1" points="32.60216 28.33728 36.63277 31.51403 36.63277 31.51389 36.63277 31.51375 36.63277 29.48645 32.59208 26.30031 32.60216 28.33728"/><g class="cls-6"><rect class="cls-1" x="31.525" y="26.20678" width="6.17484" height="5.40079" transform="translate(-3.23105 53.433) rotate(-72.81424)"/></g><rect class="cls-1" x="43.19002" y="14.65688" width=".69829" height=".69829" transform="translate(2.14164 35.18236) rotate(-45.0005)"/><rect class="cls-1" x="44.1778" y="14.65688" width=".69829" height=".69829" transform="translate(2.43096 35.88084) rotate(-45.0005)"/><rect class="cls-1" x="51.17368" y="19.83527" width=".69824" height=".69824" transform="translate(.81816 42.34399) rotate(-45)"/><rect class="cls-1" x="50.18571" y="19.83538" width=".69829" height=".69829" transform="translate(.5255 41.63799) rotate(-44.99145)"/><path class="cls-1" d="M50.37271,19.2274h.52503c.74623,0,1.11921-.35509,1.11921-1.06498v-2.13748l-.69441.2469v1.80596c0,.18486-.03976.30724-.11955.36644-.08036.05878-.20232.08874-.36729.08874h-5.67628v-2.50804h-1.48936c-.27799,0-.51353.04628-.70648.13871-.19266.09243-.33777.22135-.43616.38547-.09739.1654-.16711.33407-.20757.50587-.04132.17236-.06205.35878-.06205.55939,0,.39129.12608.75773.37781,1.10019.25258.34216.5557.51282.91079.51282h.45533l.46327-.46256v.46256h5.90771ZM44.465,18.53298h-.79494c-.20629,0-.37695-.09682-.51353-.28948-.13588-.19295-.20431-.40209-.20431-.62911,0-.59631.23909-.89503.71784-.89503h.79494v1.81363Z"/><path class="cls-1" d="M53.07396,19.21208c0,.09769-.00284.17876-.00767.24321-.00525.06403-.02073.15447-.04628.27005-.02584.11585-.0656.21595-.11955.30071-.05438.08547-.13374.17505-.23909.27033-.10634.09527-.23271.1735-.38235.23554l.67128.34742c.29872-.19097.50913-.4248.63323-.70251.12281-.27799.18486-.54761.18486-.81027v-3.34188l-.69441.24689v2.94051Z"/><rect class="cls-1" x="58.72435" y="14.71098" width=".69824" height=".69824" transform="translate(6.65777 46.19008) rotate(-45.00855)"/><rect class="cls-1" x="57.73652" y="14.71098" width=".69824" height=".69824" transform="translate(6.36833 45.49147) rotate(-45.00855)"/><path class="cls-1" d="M65.16172,18.06983c0,.18046-.04045.30241-.12323.36645-.08264.06488-.20347.09697-.36276.09697h-.71714c-.23227,0-.42281-.01051-.5716-.03124.46824-.36516.70251-.83824.70251-1.42034,0-.22092-.03763-.40989-.11187-.56678-.07454-.15688-.16087-.27558-.25896-.35509-.09726-.07978-.22333-.14226-.37781-.18925-.15447-.04629-.28453-.07341-.39002-.08108-.10534-.00738-.23014-.01093-.3741-.01093-.34501,0-.75435.10535-1.2274.31618l-.47791.60965c.16896.71018.4681,1.26261.89504,1.65915-.27772.04614-.57644.06972-.89504.06972h-5.15024c-.16001,0-.28084-.03209-.36275-.09697-.08235-.06404-.12367-.18599-.12367-.36645v-3.55782l-.69441.24733v3.40336c0,.70989.37255,1.06497,1.11921,1.06497h5.12711c.63719,0,1.21647-.09243,1.73611-.27813.42167.18571.91334.27813,1.47387.27813h.74112c.74539,0,1.1192-.35508,1.1192-1.06497v-3.65068l-.69526.24733v3.3105ZM62.57674,18.21663c-.38633-.24193-.71019-.68959-.97243-1.34254l.11586-.06971c.07184-.05111.1894-.10336.35068-.15447.16215-.05111.33082-.07695.50588-.07695.29304,0,.50387.03563.63237.10733.12891.07298.1938.18614.1938.34046,0,.52419-.27616.92343-.82617,1.19588"/><polygon class="cls-1" points="66.47403 19.27377 67.16845 19.01921 67.16845 14.5124 66.47403 14.75929 66.47403 19.27377"/><path class="cls-1" d="M80.91679,17.59948c0-.22702.06688-.42977.20061-.60965.13388-.18003.30611-.27047.51737-.27047h1.09565l-.31661-.69441h-.77904c-.41188,0-.74993.16214-1.01471.48613-.2655.32428-.39768.68661-.39768,1.08841,0,.35991.06205.67084.18486.9335h-1.0052c-.12281,0-.22915-.03975-.31576-.11954-.08846-.07951-.13177-.17634-.13177-.28949v-3.60369l-.69441.2469v3.35679c0,.11316-.04458.20999-.13501.28949-.09002.07979-.19451.11954-.3125.11954h-6.1218v-2.50804h-1.48937c-.27798,0-.51353.04628-.70648.13871-.19265.09243-.33777.22135-.43616.38547-.09738.1654-.16711.33407-.20756.50587-.04146.17236-.06205.35878-.06205.55939,0,.39129.12607.75773.37781,1.10019.25215.34216.55569.51282.91078.51282h.91861v.01575c0,.58126-.39642,1.01103-1.18808,1.28831l.7945.40932c.72509-.40123,1.08799-.96716,1.08799-1.69764v-.01575h6.1218c.30312,0,.56835-.10748.79494-.32357.21595.21609.48074.32357.79452.32357h3.50628v-.69442h-1.27354c-.47874,0-.71798-.31092-.71798-.9335M70.99636,18.53298h-.79495c-.20543,0-.37694-.09682-.51353-.28948-.13588-.19295-.2043-.40209-.2043-.62911,0-.59631.23909-.89503.71783-.89503h.79495v1.81363Z"/><path class="cls-1" d="M60.02389,17.44101c0-.923-.57842-1.54032-1.44675-1.54032-.86863,0-1.44221.61732-1.44221,1.54032s.57358,1.76252,1.44221,1.76252c.86833,0,1.44675-.83951,1.44675-1.76252M57.81956,17.44101c0-.48599.30326-.84605.75688-.84605.45476,0,.76286.36006.76286.84605s-.3081,1.0921-.76286,1.0921c-.45361,0-.75688-.6061-.75688-1.0921"/><path class="cls-1" d="M43.99163,22.14934c-1.11794,0-1.8663.76412-1.8663,1.91046s.74837,1.91046,1.8663,1.91046c1.11764,0,1.86147-.76413,1.86147-1.91046s-.74383-1.91046-1.86147-1.91046M43.99163,25.27427c-.67582,0-1.12206-.48443-1.12206-1.21447s.44624-1.21533,1.12206-1.21533c.67169,0,1.11764.48528,1.11764,1.21533s-.44595,1.21447-1.11764,1.21447"/><rect class="cls-1" x="46.38085" y="22.19842" width=".69441" height="3.72252"/><path class="cls-1" d="M53.23441,24.5935c0-.8273-.54065-1.37619-1.35192-1.37619-.81111,0-1.3478.54889-1.3478,1.37619s.53668,1.3762,1.3478,1.3762c.81127,0,1.35192-.54889,1.35192-1.3762M51.2514,24.5935c0-.43615.25258-.73005.63109-.73005.37866,0,.63521.2939.63521.73005s-.25655.73006-.63521.73006c-.37851,0-.63109-.2939-.63109-.73006"/><path class="cls-1" d="M48.64228,25.96983c.34741,0,.67581-.23554.82972-.5777v.52873h.65721v-2.65484h-.6937v1.78324c-.12594.17151-.32016.27402-.54548.27402-.26565,0-.42778-.18074-.42778-.51879v-1.53847h-.69428v1.68513c0,.62229.33805,1.01869.8743,1.01869"/><path class="cls-1" d="M58.29121,25.92129v-.07426l-.74339-1.40488c.39684-.19181.6311-.56876.6311-1.05404,0-.715-.49607-1.18978-1.24402-1.18978h-1.86586v3.72295h.71187v-1.34254h1.06809l.67169,1.34254h.77052ZM56.89885,23.91755h-1.11794v-1.05319h1.11794c.3203,0,.53625.21084.53625.52376,0,.31377-.21198.52943-.53625.52943"/><path class="cls-1" d="M59.90611,25.96975c.36916,0,.78386-.11316,1.03161-.28864v-.67085c-.19791.18571-.53141.31293-.83837.31293-.43247,0-.73857-.20545-.82845-.53384h1.77062v-.25457c0-.79338-.45448-1.31741-1.13995-1.31741-.80672,0-1.34822.54846-1.34822,1.37577,0,.82816.5415,1.37662,1.35276,1.37662M59.86552,23.77065c.2838,0,.47306.20062.49578.50957h-1.07705c.08108-.31377.29306-.50957.58127-.50957"/><path class="cls-1" d="M63.38159,25.3917v.5293h.66233v-2.65513h-.66233v.52418c-.10818-.33762-.44183-.57274-.83383-.57274-.66674,0-1.11354.54889-1.11354,1.37619s.4468,1.3762,1.11354,1.3762c.392,0,.72564-.23512.83383-.578M62.15136,24.5935c0-.43615.25257-.73005.63521-.73005.22985,0,.42848.10336.56379.26961v.91562c-.13531.1715-.33394.27487-.56379.27487-.38264,0-.63521-.2939-.63521-.73006"/><rect class="cls-1" x="64.71676" y="22.19842" width=".69441" height="3.72252"/><polygon class="cls-1" points="70.26992 25.2546 68.03021 25.2546 68.03021 24.34906 70.08506 24.34906 70.08506 23.6822 68.03021 23.6822 68.03021 22.86454 70.22007 22.86454 70.22007 22.19853 67.31762 22.19853 67.31762 25.92062 70.26992 25.92062 70.26992 25.2546"/><path class="cls-1" d="M71.74932,24.88248c.26591.02926.49578.06404.49578.24478,0,.16668-.1982.25996-.57686.25996-.3203,0-.68944-.13261-.93281-.32314v.63152c.20276.16668.58992.27402.97327.27402.75277,0,1.25309-.347,1.25309-.86663,0-.67085-.60398-.76413-1.04099-.81793-.27117-.03933-.50103-.06858-.50103-.255,0-.14155.17676-.23469.44708-.23469.2878,0,.66646.12239.92827.30312v-.63194c-.26181-.15646-.64046-.24974-.96885-.24974-.67157,0-1.12277.33806-1.12277.84236,0,.69115.6081.76938,1.04582.82332"/><path class="cls-1" d="M74.23328,22.60981h-.06773l-1.0231,1.19546v.07822h.4285v1.18524c0,.54363.32427.90071.81594.90071.22049,0,.47748-.0822.63479-.20062v-.64174c-.08959.11798-.25699.19621-.40975.19621-.20716,0-.34742-.137-.34742-.33762v-1.10218h.75717v-.61774h-.7884v-.65595Z"/><path class="cls-1" d="M76.45614,25.96953c.392,0,.72523-.23469.83299-.57757v.52859h.66245v-2.65428h-.66245v.52404c-.10777-.33762-.441-.57359-.83299-.57359-.66715,0-1.11354.54888-1.11354,1.37704,0,.82731.44639,1.37577,1.11354,1.37577M76.69453,23.86371c.22985,0,.42848.10251.56351.26962v.91561c-.13503.17151-.33366.27402-.56351.27402-.38264,0-.63523-.2939-.63523-.7292,0-.43616.25259-.73006.63523-.73006"/><path class="cls-1" d="M80.21088,25.76909v-.64174c-.09045.11713-.25699.19578-.40976.19578-.20799,0-.34741-.13658-.34741-.33805v-1.10218h.75717v-.61689h-.78842v-.65595h-.06771l-1.02352,1.1946v.07823h.42805v1.18609c0,.54363.32514.90071.81637.90071.22051,0,.47706-.08306.63523-.20062"/><path class="cls-1" d="M82.90729,25.01026c-.19862.18571-.53212.31293-.83908.31293-.43247,0-.73857-.20545-.82845-.53384h1.77133v-.25457c0-.79338-.45519-1.31741-1.14066-1.31741-.80672,0-1.34737.54846-1.34737,1.37577,0,.82816.54065,1.37662,1.35177,1.37662.3693,0,.784-.11316,1.03246-.28864v-.67085ZM81.83437,23.77065c.2838,0,.47306.20062.49578.50957h-1.07705c.08108-.31377.29306-.50957.58127-.50957"/><path class="cls-1" d="M43.96003,28.22839h-1.50951v3.7221h1.50951c1.10871,0,1.84358-.74425,1.84358-1.86545,0-1.1124-.73487-1.85665-1.84358-1.85665M43.92398,31.28447h-.76214v-2.39006h.76214c.68504,0,1.14065.47477,1.14065,1.19063,0,.71912-.45561,1.19943-1.14065,1.19943"/><path class="cls-1" d="M47.54856,29.24701c-.80657,0-1.34737.54846-1.34737,1.37662,0,.82731.5408,1.37619,1.35191,1.37619.37014,0,.78401-.11273,1.03247-.28907v-.67084c-.19863.18571-.53228.31292-.83838.31292-.43246,0-.73899-.20544-.82929-.53341h1.77147v-.25499c0-.79323-.45533-1.31742-1.1408-1.31742M46.93125,30.30986c.08107-.31377.29304-.50956.58126-.50956.28381,0,.47307.20061.49579.50956h-1.07705Z"/><polygon class="cls-1" points="50.20411 30.692 49.54177 29.29593 48.82025 29.29593 48.82025 29.36933 50.16762 32.04874 50.23534 32.04874 51.58796 29.36933 51.58796 29.29593 50.86643 29.29593 50.20411 30.692"/><path class="cls-1" d="M53.04408,29.24701c-.80657,0-1.34737.54846-1.34737,1.37662,0,.82731.5408,1.37619,1.35191,1.37619.37,0,.78386-.11273,1.03247-.28907v-.67084c-.19863.18571-.53228.31292-.83838.31292-.43246,0-.73899-.20544-.82929-.53341h1.77061v-.25499c0-.79323-.45447-1.31742-1.13994-1.31742M52.42676,30.30986c.08107-.31377.29304-.50956.58126-.50956.28381,0,.47307.20061.49579.50956h-1.07705Z"/><rect class="cls-1" x="54.72121" y="28.22824" width=".69441" height="3.72252"/><path class="cls-1" d="M57.28646,29.24733c-.81112,0-1.34739.54846-1.34739,1.37576,0,.82816.53627,1.37705,1.34739,1.37705s1.35191-.54889,1.35191-1.37705c0-.82731-.54081-1.37576-1.35191-1.37576M57.28646,31.35315c-.37867,0-.6311-.29389-.6311-.73005,0-.4353.25243-.7292.6311-.7292s.63521.2939.63521.7292c0,.43616-.25656.73005-.63521.73005"/><path class="cls-1" d="M60.65348,29.24733c-.392,0-.72551.23469-.83384.57274v-.52376h-.65778v3.73261h.69426v-1.51405c.13503.29347.44184.48528.79736.48528.67169,0,1.11354-.54889,1.11354-1.37705,0-.82731-.44184-1.37576-1.11354-1.37576M60.41965,31.35315c-.2347,0-.43262-.10251-.56353-.27402v-.91619c.1309-.16654.32883-.26905.56353-.26905.37865,0,.63037.2939.63037.7292,0,.43616-.25172.73005-.63037.73005"/><path class="cls-1" d="M65.44583,29.24703c-.34742,0-.68022.23555-.84762.58779-.12167-.3673-.41472-.58779-.81112-.58779-.34699,0-.67653.23555-.82942.57359v-.52461h-.65821v2.65485h.69426v-1.78807c.12609-.16668.32032-.26877.54606-.26877.26522,0,.42763.17549.42763.51836v1.53847h.69441v-1.68514c0-.02882,0-.06361-.0044-.09285.13005-.18159.3247-.27885.54065-.27885.27487,0,.43701.17549.43701.51836v1.53847h.69443v-1.68514c0-.62229-.34288-1.0187-.88367-1.0187"/><path class="cls-1" d="M68.17817,29.24701c-.80656,0-1.34737.54846-1.34737,1.37662,0,.82731.54081,1.37619,1.35191,1.37619.37001,0,.78386-.11273,1.03248-.28907v-.67084c-.19863.18571-.53228.31292-.83838.31292-.43247,0-.73928-.20544-.8293-.53341h1.77147v-.25499c0-.79323-.45533-1.31742-1.1408-1.31742M67.56086,30.30986c.08106-.31377.29304-.50956.58126-.50956.2838,0,.47306.20061.49578.50956h-1.07704Z"/><path class="cls-1" d="M71.36543,29.24703c-.36077,0-.69356.23555-.85173.57359v-.52461h-.65821v2.65485h.69441v-1.78807c.13047-.16668.33321-.26877.56791-.26877.27969,0,.45035.18031.45035.53341v1.52342h.69428v-1.67009c0-.63166-.34685-1.03374-.89702-1.03374"/><path class="cls-1" d="M74.49865,29.91296v-.61689h-.78927v-.65679h-.06686l-1.0231,1.19545v.07823h.42763v1.18524c0,.54363.32514.90156.81637.90156.22051,0,.47706-.08306.63523-.20062v-.64174c-.09045.11713-.25699.19579-.40976.19579-.20799,0-.34741-.13658-.34741-.33805v-1.10218h.75717Z"/></svg>