<?xml version="1.0" encoding="UTF-8"?><svg id="Layer_1" xmlns="http://www.w3.org/2000/svg" viewBox="0 0 1080 705.31915"><defs><style>.cls-1{fill:#4b3d35;}.cls-2{fill:#fff;}</style></defs><rect class="cls-1" width="1080" height="705.31915"/><rect class="cls-2" x="353.94165" y="466.56409" width="2.21826" height="2.45178"/><rect class="cls-2" x="350.29309" y="466.56409" width="2.21826" height="2.45178"/><rect class="cls-2" x="393.11279" y="466.56409" width="2.21851" height="2.45178"/><rect class="cls-2" x="396.76147" y="466.56409" width="2.21851" height="2.45178"/><path class="cls-2" d="M412.43616,462.21466h-15.23657v-12.58038h-2.2478v12.58038h-14.97375v-7.88074c0-3.32776-1.59583-4.99158-4.78687-4.99158-1.45947,0-3.65869.30212-6.59668.90521l.08765,1.66345.81714-.08752c2.58789-.31116,4.31995-.4671,5.19568-.4671,1.01147,0,1.77051.24841,2.27673.74438.50574.4964.75879,1.23102.75879,2.2038v7.9101h-23.35107v-12.58038h-2.24731v12.58038h-18.12646c-.75879,0-1.33801-.02405-1.73669-.07288-.39905-.04846-.77356-.18976-1.12366-.4231l-.9342,1.66382c.87573.56439,2.07251.84619,3.59045.84619h.70044c.01904.11688.0293.30176.0293.55463,0,1.36169-.37512,2.4856-1.12402,3.37128-.74927.88531-1.8147,1.32837-3.19617,1.32837l-7.70581-.02936c-.95374,0-1.83435-.19464-2.6416-.58392-.80774-.38928-1.44983-.94391-1.92639-1.66345-.47705-.72034-.71509-1.53766-.71509-2.45221,0-.87555.21387-2.74341.64209-5.60406l-2.13074-.35016c-.50635,3.11353-.75903,5.26398-.75903,6.45062,0,1.20612.34021,2.28119,1.02173,3.22546.68079.94354,1.60535,1.67816,2.77283,2.20386,1.16772.52527,2.46143.78796,3.8822.78796h7.67664c2.08203,0,3.67773-.62305,4.78711-1.86829,1.10889-1.2453,1.66357-2.90912,1.66357-4.99121v-.37952h77.90503v-20.95746h-2.24744v18.94342Z"/><rect class="cls-2" x="419.93738" y="443.27124" width="2.2478" height="20.95746"/><rect class="cls-2" x="436.92578" y="444.46802" width="2.21802" height="2.45184"/><rect class="cls-2" x="440.57446" y="444.46802" width="2.21802" height="2.45184"/><rect class="cls-2" x="460.65601" y="466.56409" width="2.21851" height="2.45178"/><path class="cls-2" d="M492.28235,450.65601c-1.80029-1.5177-4.07214-2.27673-6.8158-2.27673-1.9657,0-4.21313.34082-6.74268,1.02167l.14624,1.72211c1.34253-.2337,2.49536-.41333,3.45874-.53998.96313-.12622,1.87244-.18976,2.72925-.18976,2.21802,0,4.052.5791,5.50171,1.73676,1.44971,1.15814,2.17493,3.17706,2.17493,6.05646v4.02814h-4.29077v-2.33496c0-.99237-.23865-1.89227-.71497-2.69977-.47729-.80756-1.11951-1.43994-1.92651-1.89764-.80798-.45685-1.67859-.68573-2.61279-.68573-.95361,0-1.83398.23865-2.64148.71509-.8075.47723-1.44971,1.11902-1.92651,1.92651-.47693.8075-.71509,1.68829-.71509,2.64154v2.33496h-15.00281v-12.58038h-2.2478v12.58038h-14.97363v-12.55103c-.75903-.07739-1.88281-.1507-3.37122-.21912-1.48877-.06799-2.59351-.10217-3.31311-.10217-1.63452,0-2.93347.2533-3.89648.75903-.9635.50616-1.65454,1.30389-2.07275,2.39355-.4187,1.09009-.62744,2.53937-.62744,4.349,0,1.82959.21899,3.27441.65674,4.33478.43774,1.06079,1.15283,1.83405,2.14526,2.32025.99268.48663,2.35449.72974,4.08667.72974h55.69214v-6.1004c0-3.46332-.90039-5.95465-2.69983-7.47229ZM443.43457,462.21466h-3.76489c-1.26538,0-2.25769-.17957-2.97754-.53998-.71997-.35956-1.24048-.92883-1.56177-1.7074-.3208-.7782-.4812-1.83899-.4812-3.18158,0-1.92651.3595-3.30817,1.07983-4.14496.71948-.83643,1.96521-1.25507,3.73608-1.25507.9342,0,2.25732.05829,3.96948.17511v10.65387ZM486.19629,462.21466h-6.04187v-2.5976c0-.83643.29163-1.547.87549-2.13092.58398-.58356,1.30347-.87555,2.15979-.87555.85645,0,1.57153.29199,2.14563.87555.57385.58392.86096,1.29449.86096,2.13092v2.5976Z"/><path class="cls-2" d="M665.29658,324.3669v-19.60425h7.82337c2.83408,0,5.26495.25511,7.29189.76533,2.02623.51022,3.69909,1.24768,5.01716,2.21095,1.31807.96375,2.28867,2.1193,2.9125,3.46524.62313,1.34641.9354,2.84211.9354,4.48568,0,1.53066-.26243,2.95502-.78659,4.27309-.52486,1.31807-1.29681,2.45189-2.31725,3.40146-.3956.36831-.83587.69612-1.29967,1.00249h9.99431c.75635-.63588,1.40871-1.29433,1.93494-1.98041.7932-1.03461,1.34594-2.16135,1.65821-3.38021.31156-1.21839.4677-2.60779.4677-4.16679,0-2.04088-.49628-3.91168-1.48814-5.61242-.99257-1.70073-2.38835-3.16053-4.18805-4.37939-1.80041-1.21839-3.9542-2.16135-6.46278-2.82747-2.50858-.66565-5.26566-.99918-8.26981-.99918h-22.70478v23.34586h9.48158Z"/><path class="cls-2" d="M698.22701,332.846c-.39911-.40877-.83693-.78375-1.29259-1.14303h-11.83412c1.11442.51672,2.0743,1.12431,2.87979,1.82333,1.28949,1.12012,2.21757,2.4448,2.78495,3.97546.56667,1.53066.85037,3.18887.85037,4.97464,0,1.58782-.31889,3.04715-.95666,4.37939-.63777,1.33271-1.6157,2.47315-2.93376,3.42272-1.31807.95005-2.99093,1.68656-5.01716,2.21095-2.02694.52486-4.41529.78659-7.16434.78659h-10.24691v-21.57308h-9.48158v25.69736h26.31883c3.00415,0,5.71871-.39684,8.14226-1.19051,2.42354-.7932,4.4923-1.87742,6.20767-3.25265,1.71467-1.37476,3.03274-2.99045,3.9542-4.84709.92076-1.85616,1.38185-3.84791,1.38185-5.97382,0-1.87081-.31227-3.5928-.9354-5.16597-.62384-1.57318-1.5094-2.94794-2.65739-4.12428Z"/><polygon class="cls-2" points="725.95848 324.3669 732.08765 311.17725 738.03253 324.3669 746.782 324.3669 735.45179 299.74549 733.07076 299.74549 721.4682 324.3669 725.95848 324.3669"/><polygon class="cls-2" points="718.01116 331.70296 705.90156 357.40032 710.60808 357.40032 722.54949 331.70296 718.01116 331.70296"/><polygon class="cls-2" points="750.15787 331.70296 741.33904 331.70296 752.92144 357.40032 761.98322 357.40032 750.15787 331.70296"/><polygon class="cls-2" points="614.9549 324.3669 614.9549 304.67761 644.6752 304.67761 644.6752 301.02104 605.47331 301.02104 605.47331 324.3669 614.9549 324.3669"/><polygon class="cls-2" points="614.9549 331.70296 605.47331 331.70296 605.47331 357.40032 644.6752 357.40032 644.6752 353.74375 614.9549 353.74375 614.9549 331.70296"/><path class="cls-2" d="M345.97279,371.50837l26.53143,57.65483h-9.65166l-8.5887-18.79309h-24.19292l-8.88633,18.79309h-4.76205l27.1692-57.65483h2.38103ZM331.72916,406.71353h20.79145l-10.24691-22.32211-10.54454,22.32211Z"/><path class="cls-2" d="M383.32759,372.78392h9.48158v52.72271h28.40223v3.65657h-37.88382v-56.37928Z"/><path class="cls-2" d="M431.79846,372.78392l19.55842,28.57231,19.47339-28.57231h5.14472l-21.85441,32.01629v24.36299h-9.48158v-23.47011l-22.53471-32.90917h9.69417Z"/><path class="cls-2" d="M505.90788,371.50837l26.53143,57.65483h-9.65166l-8.5887-18.79309h-24.19292l-8.88633,18.79309h-4.76205l27.1692-57.65483h2.38103ZM491.66425,406.71353h20.79145l-10.24691-22.32211-10.54454,22.32211Z"/><path class="cls-2" d="M605.33605,372.78392h9.48158v56.37928h-9.48158v-56.37928Z"/><path class="cls-2" d="M652.23374,371.50837l26.53143,57.65483h-9.65166l-8.5887-18.79309h-24.19292l-8.88633,18.79309h-4.76205l27.1692-57.65483h2.38103ZM637.99011,406.71353h20.79145l-10.24691-22.32211-10.54454,22.32211Z"/><rect class="cls-2" x="573.60276" y="307.52235" width="23.70231" height="9.48158" transform="translate(272.40521 897.29738) rotate(-89.92309)"/><rect class="cls-2" x="535.80402" y="307.47161" width="23.70231" height="9.48158" transform="translate(234.70794 859.448) rotate(-89.92309)"/><rect class="cls-2" x="536.63226" y="375.71764" width="97.46024" height="9.48158" transform="translate(204.11856 965.3096) rotate(-89.92309)"/><rect class="cls-2" x="498.83351" y="375.66691" width="97.46024" height="9.48158" transform="translate(166.42129 927.46022) rotate(-89.92309)"/><polygon class="cls-2" points="725.95848 324.3669 732.08765 311.17725 738.03253 324.3669 746.782 324.3669 735.45179 299.74549 733.07076 299.74549 721.4682 324.3669 725.95848 324.3669"/><polygon class="cls-2" points="718.01116 331.70296 705.90156 357.40032 710.60808 357.40032 722.54949 331.70296 718.01116 331.70296"/><polygon class="cls-2" points="750.15787 331.70296 741.33904 331.70296 752.92144 357.40032 761.98322 357.40032 750.15787 331.70296"/></svg>